<?xml version="1.0" encoding="UTF-8" standalone="no"?>
<svg width="348px" height="372px" viewBox="0 0 348 372" version="1.1" xmlns="http://www.w3.org/2000/svg" xmlns:xlink="http://www.w3.org/1999/xlink" xmlns:sketch="http://www.bohemiancoding.com/sketch/ns">
    <!-- Generator: sketchtool 1.1.1 (155) - http://www.bohemiancoding.com/sketch -->
    <title>favicon</title>
    <description>Created with sketchtool.</description>
    <defs></defs>
    <g id="Page-1" stroke="none" stroke-width="1" fill="none" fill-rule="evenodd" sketch:type="MSPage">
        <g id="favicon" sketch:type="MSArtboardGroup" transform="translate(0.726562, 0.500000)" fill="#2980B9">
            <circle id="Oval-17" sketch:type="MSShapeGroup" transform="translate(297.691443, 188.159523) rotate(-8.000000) translate(-297.691443, -188.159523) " cx="297.691443" cy="188.159523" r="41"></circle>
            <ellipse id="Oval-2" sketch:type="MSShapeGroup" transform="translate(276.753548, 275.241860) rotate(-8.000000) translate(-276.753548, -275.241860) " cx="276.753548" cy="275.24186" rx="34.2387276" ry="34.2387276"></ellipse>
            <ellipse id="Oval-4" sketch:type="MSShapeGroup" transform="translate(270.149773, 99.220079) rotate(-8.000000) translate(-270.149773, -99.220079) " cx="270.149773" cy="99.2200793" rx="35.7029228" ry="35.7029228"></ellipse>
            <circle id="Oval-5" sketch:type="MSShapeGroup" transform="translate(208.627574, 320.743145) rotate(-8.000000) translate(-208.627574, -320.743145) " cx="208.627574" cy="320.743145" r="30"></circle>
            <ellipse id="Oval-7" sketch:type="MSShapeGroup" transform="translate(134.020006, 323.345148) rotate(-8.000000) translate(-134.020006, -323.345148) " cx="134.020006" cy="323.345148" rx="27.6000004" ry="27.6000004"></ellipse>
            <ellipse id="Oval-8" sketch:type="MSShapeGroup" transform="translate(125.117214, 53.725520) rotate(-8.000000) translate(-125.117214, -53.725520) " cx="125.117214" cy="53.7255198" rx="27.4173279" ry="27.4173279"></ellipse>
            <ellipse id="Oval-9" sketch:type="MSShapeGroup" transform="translate(68.821784, 83.501998) rotate(-8.000000) translate(-68.821784, -83.501998) " cx="68.8217845" cy="83.5019975" rx="22.513258" ry="22.513258"></ellipse>
            <ellipse id="Oval-10" sketch:type="MSShapeGroup" transform="translate(72.734462, 295.516825) rotate(-8.000000) translate(-72.734462, -295.516825) " cx="72.7344615" cy="295.516825" rx="22.6317336" ry="22.6317336"></ellipse>
            <ellipse id="Oval-11" sketch:type="MSShapeGroup" transform="translate(34.319740, 133.128485) rotate(-8.000000) translate(-34.319740, -133.128485) " cx="34.31974" cy="133.128485" rx="21.6693115" ry="21.6693115"></ellipse>
            <ellipse id="Oval-12" sketch:type="MSShapeGroup" transform="translate(33.808792, 247.266639) rotate(-8.000000) translate(-33.808792, -247.266639) " cx="33.8087915" cy="247.266639" rx="20.4756794" ry="20.4756794"></ellipse>
            <ellipse id="Oval-13" sketch:type="MSShapeGroup" transform="translate(20.717950, 191.871631) rotate(-8.000000) translate(-20.717950, -191.871631) " cx="20.7179499" cy="191.871631" rx="17.6016712" ry="17.6016712"></ellipse>
            <ellipse id="Oval-16" sketch:type="MSShapeGroup" transform="translate(200.576954, 53.053212) rotate(-8.000000) translate(-200.576954, -53.053212) " cx="200.576954" cy="53.0532117" rx="30.7970772" ry="30.7970772"></ellipse>
        </g>
    </g>
</svg>