<?xml version="1.0" encoding="UTF-8" standalone="no"?>
<svg width="694px" height="392px" viewBox="0 0 694 392" version="1.1" xmlns="http://www.w3.org/2000/svg" xmlns:xlink="http://www.w3.org/1999/xlink" xmlns:sketch="http://www.bohemiancoding.com/sketch/ns">
    <!-- Generator: sketchtool 1.1.1 (155) - http://www.bohemiancoding.com/sketch -->
    <title>flat</title>
    <description>Created with sketchtool.</description>
    <defs></defs>
    <g id="Page-1" stroke="none" stroke-width="1" fill="none" fill-rule="evenodd" sketch:type="MSPage">
        <g id="flat" sketch:type="MSArtboardGroup" fill="#FFFFFF">
            <ellipse id="oval-9" sketch:type="MSShapeGroup" cx="630.189714" cy="258.75641" rx="20.5246534" ry="20.5384615"></ellipse>
            <ellipse id="oval-7" sketch:type="MSShapeGroup" cx="630.189714" cy="134.384615" rx="20.5246534" ry="20.5384615"></ellipse>
            <ellipse id="oval-6" sketch:type="MSShapeGroup" cx="595.411829" cy="81.3269231" rx="18.8142656" ry="18.8269231"></ellipse>
            <ellipse id="oval-10" sketch:type="MSShapeGroup" cx="595.411829" cy="310.673077" rx="18.8142656" ry="18.8269231"></ellipse>
            <ellipse id="oval-11" sketch:type="MSShapeGroup" cx="542.389808" cy="345.474359" rx="17.1038778" ry="17.1153846"></ellipse>
            <ellipse id="oval-12" sketch:type="MSShapeGroup" cx="481.385977" cy="358.596154" rx="15.39349" ry="15.4038462"></ellipse>
            <ellipse id="oval-4" sketch:type="MSShapeGroup" cx="481.385977" cy="33.4038462" rx="15.39349" ry="15.4038462"></ellipse>
            <ellipse id="oval-3" sketch:type="MSShapeGroup" cx="419.241887" cy="46.525641" rx="12.5428437" ry="12.5512821"></ellipse>
            <ellipse id="oval-13" sketch:type="MSShapeGroup" cx="419.241887" cy="345.474359" rx="12.5428437" ry="12.5512821"></ellipse>
            <ellipse id="oval-2" sketch:type="MSShapeGroup" cx="365.649737" cy="81.8974359" rx="11.4025852" ry="11.4102564"></ellipse>
            <ellipse id="oval-14" sketch:type="MSShapeGroup" cx="365.649737" cy="310.102564" rx="11.4025852" ry="11.4102564"></ellipse>
            <ellipse id="oval-1" sketch:type="MSShapeGroup" cx="330.871852" cy="133.814103" rx="9.69219743" ry="9.69871795"></ellipse>
            <ellipse id="oval-5" sketch:type="MSShapeGroup" cx="542.389808" cy="45.3846154" rx="17.1038778" ry="17.1153846"></ellipse>
            <ellipse id="oval-8" sketch:type="MSShapeGroup" cx="642.162428" cy="195.429487" rx="24.5155582" ry="24.5320513"></ellipse>
            <path d="M93.4430429,280.62069 L93.4430429,171.21037 L150.179694,171.21037 L150.179694,182.528679 L105.631991,182.528679 L105.631991,215.03254 L148.873736,215.03254 L148.873736,226.350849 L105.631991,226.350849 L105.631991,269.302381 L150.179694,269.302381 L150.179694,280.62069 L93.4430429,280.62069 Z" id="text-E" sketch:type="MSShapeGroup"></path>
            <path d="M171.65546,280.62069 L171.65546,166.566961 L256.978097,255.95258 L256.978097,171.21037 L269.167045,171.21037 L269.167045,285.554312 L183.844408,196.313798 L183.844408,280.62069 L171.65546,280.62069 Z" id="text-N" sketch:type="MSShapeGroup"></path>
            <path d="M291.94877,280.62069 L291.94877,171.21037 L312.553896,171.21037 C321.647284,171.21037 329.531326,172.129368 336.20626,173.967394 C342.881193,175.805419 349.217448,179.28794 355.215215,184.415063 C367.307486,194.862785 373.35353,208.744504 373.35353,226.060636 C373.35353,242.602863 367.404222,256.194371 355.505428,266.83557 C349.410923,272.252907 343.050484,275.904718 336.42392,277.791112 C329.797355,279.677507 321.744024,280.62069 312.263683,280.62069 L291.94877,280.62069 Z M304.137718,269.302381 L312.989216,269.302381 C320.438055,269.302381 326.895231,268.504303 332.360937,266.908123 C337.826643,265.311943 342.881137,262.337289 347.524569,257.984072 C356.617957,249.471113 361.164582,238.781706 361.164582,225.91553 C361.164582,212.372186 356.424483,201.440937 346.944143,193.121455 C342.300711,188.961714 337.294586,186.156349 331.925617,184.705276 C326.556649,183.254204 320.244578,182.528679 312.989216,182.528679 L304.137718,182.528679 L304.137718,269.302381 Z" id="text-D" sketch:type="MSShapeGroup"></path>
            <path d="M402.810155,171.21037 L402.810155,280.62069 L390.621207,280.62069 L390.621207,171.21037 L402.810155,171.21037 Z" id="text-I" sketch:type="MSShapeGroup"></path>
            <path d="M474.782992,182.528679 L437.200402,182.528679 L437.200402,215.03254 L473.622139,215.03254 L473.622139,226.350849 L437.200402,226.350849 L437.200402,280.62069 L425.011453,280.62069 L425.011453,171.21037 L474.782992,171.21037 L474.782992,182.528679 Z" id="text-F" sketch:type="MSShapeGroup"></path>
            <path d="M520.346441,233.606175 L484.505129,171.21037 L498.580462,171.21037 L526.440915,219.966162 L554.301368,171.21037 L568.376701,171.21037 L532.535389,233.606175 L532.535389,280.62069 L520.346441,280.62069 L520.346441,233.606175 Z" id="text-Y" sketch:type="MSShapeGroup"></path>
            <path d="M51.2170441,171.21037 L51.2170441,269.302381 L81.3992013,269.302381 L81.3992013,280.62069 L39.0280959,280.62069 L39.0280959,171.21037 L51.2170441,171.21037 Z" id="text-L" sketch:type="MSShapeGroup"></path>
        </g>
    </g>
</svg>