<?xml version="1.0" standalone="no"?> <!DOCTYPE svg PUBLIC "-//W3C//DTD SVG 1.0//EN" "http://www.w3.org/TR/2001/REC-SVG-20010904/DTD/svg10.dtd" > <svg xmlns="http://www.w3.org/2000/svg" width="100%" height="100%">
<defs >
<font id="Lato" horiz-adv-x="1032" ><font-face
    font-family="Lato"
    units-per-em="2048"
    panose-1="2 15 7 2 2 2 4 3 2 3"
    ascent="2229"
    descent="-619"
    alphabetic="0" />
<missing-glyph horiz-adv-x="748" d="M68 0V1365H612V0H68ZM136 68H544V1297H136V68Z" />
<glyph unicode=" " glyph-name="space" horiz-adv-x="462" />
<glyph unicode="!" glyph-name="exclam" horiz-adv-x="530" d="M70 127Q70 157 80 183T110 228T155 259T212 270Q242 270 268 259T313 229T343 183T354 127Q354 96 343 71T313 26T268 -4T212 -15Q181 -15 156 -5T111 25T81 70T70 127ZM174 516Q174 568 174 615T177
708T182 797T193 888L264 1475H463L391 888Q386 842 379 798T362 708T341 616T317 516H174Z" />
<glyph unicode="&quot;" glyph-name="quotedbl" horiz-adv-x="737" d="M177 1018V1178L214 1474H398L361 1178L323 1018Q313 980 294 960T240 939Q208 939 194 959T177 1018ZM508 1018V1178L545 1474H729L692 1178L654 1018Q644 980 625 960T571 939Q539 939 525
959T508 1018Z" />
<glyph unicode="#" glyph-name="numbersign" horiz-adv-x="1187" d="M50 426T38 446T38 513L57 582H260L358 893H129L156 982Q166 1016 189 1032T259 1048H399L512 1400Q523 1435 551 1454T613 1474H711L573 1048H808L944 1474H1039Q1072 1474 1089 1452T1096
1397L983 1048H1198L1169 959Q1160 924 1137 909T1068 893H942L844 582H1011Q1044 582 1056 563T1057 494L1036 426H802L668 0H570Q555 0 543 7T524 26T516 55T520 90L628 426H392L284 80Q272 36 242 18T178 0H83L218 426H83Q50 426 38 446ZM434 582H670L768 893H534L434
582Z" />
<glyph unicode="$" glyph-name="dollar" horiz-adv-x="1187" d="M31 177L106 274Q117 287 132 295T165 304Q185 304 207 286T262 245T337 199T444 167L545 674Q482 693 420 718T309 782T231 880T201 1025Q201 1112 235 1193T335 1339T495 1443T706 1488L733 1625Q737
1648 755 1664T799 1681H877L837 1482Q942 1467 1016 1424T1141 1322L1081 1243Q1067 1225 1054 1217T1023 1208Q1008 1208 989 1220T942 1247T881 1278T802 1303L710 838Q776 816 840 791T956 728T1039 634T1071 496Q1071 397 1034 308T929 149T762 37T541 -14L508
-182Q505 -202 487 -219T443 -237H365L409 -11Q290 3 193 52T31 177ZM404 1073Q404 1034 418 1005T456 953T513 913T586 880L670 1306Q600 1299 551 1278T468 1225T420 1155T404 1073ZM577 165Q646 172 699 195T789 254T844 338T863 443Q863 483 849 512T808 564T746
604T670 635L577 165Z" />
<glyph unicode="%" glyph-name="percent" horiz-adv-x="1542" d="M81 0L1261 1439Q1274 1452 1291 1463T1335 1474H1488L307 33Q295 19 278 10T238 0H81ZM137 1062Q137 1161 165 1240T243 1374T357 1459T496 1489Q555 1489 604 1467T690 1405T745 1306T765 1175Q765
1076 734 998T653 864T538 781T406 752Q346 752 297 773T212 835T157 933T137 1062ZM301 1062Q301 971 335 932T422 892Q459 892 491 907T547 955T586 1043T600 1174Q600 1267 566 1308T479 1350Q441 1350 409 1334T353 1283T315 1194T301 1062ZM805 291Q805 390
833 469T910 604T1024 689T1163 719Q1222 719 1272 698T1358 635T1413 537T1433 406Q1433 306 1402 227T1321 94T1206 12T1073 -17Q1013 -17 964 4T879 65T825 162T805 291ZM969 291Q969 246 978 214T1003 161T1041 131T1090 122Q1127 122 1159 137T1215 186T1254
273T1268 404Q1268 497 1234 538T1147 579Q1109 579 1077 563T1020 512T983 423T969 291Z" />
<glyph unicode="&amp;" glyph-name="ampersand" horiz-adv-x="1357" d="M49 351Q49 431 75 501T147 631T255 738T390 818Q353 884 336 948T319 1074Q319 1160 349 1235T434 1367T567 1457T743 1490Q823 1490 885 1465T989 1395T1053 1293T1074 1168L948 1144Q921
1139 907 1146T886 1180Q880 1208 868 1234T836 1280T789 1312T724 1325Q677 1325 639 1307T574 1257T533 1182T518 1089Q518 984 607 862L923 457Q960 522 986 591T1026 731Q1030 751 1041 764T1074 778H1223Q1206 650 1157 532T1034 312L1278 0H1096Q1069 0 1051
3T1017 14T990 33T965 62L891 158Q795 76 681 30T441 -16Q352 -16 280 9T156 82T77 198T49 351ZM268 379Q268 327 283 285T327 214T396 170T486 155Q571 155 648 190T791 288L468 705Q364 644 316 560T268 379Z" />
<glyph unicode="&apos;" glyph-name="quotesingle" horiz-adv-x="406" d="M177 1018V1178L214 1474H398L361 1178L323 1018Q313 980 294 960T240 939Q208 939 194 959T177 1018Z" />
<glyph unicode="(" glyph-name="parenleft" horiz-adv-x="537" d="M78 429Q78 577 95 717T157 999T277 1288T470 1596L558 1539Q565 1533 572 1526T581 1509T580 1485T565 1453Q494 1338 438 1223T343 984T284 728T263 447Q263 374 269 294T289 134T321 -23T367
-167Q374 -185 374 -198T369 -222T356 -239T337 -253L237 -310Q195 -223 165 -129T115 60T87 249T78 429Z" />
<glyph unicode=")" glyph-name="parenright" horiz-adv-x="537" d="M-36 -232T-38 -222T-38 -199T-23 -167Q48 -52 104 65T199 307T258 564T279 839Q279 912 272 992T252 1152T220 1309T175 1453Q162 1489 173 1508T205 1539L305 1596Q347 1508 377 1415T426 1227T454
1038T464 857Q464 707 447 568T385 287T264 -1T72 -310L-15 -253Q-23 -247 -29 -240Z" />
<glyph unicode="*" glyph-name="asterisk" horiz-adv-x="809" d="M161 1083L326 1182Q363 1206 400 1209Q364 1212 333 1236L190 1335L252 1424L394 1324Q408 1314 421 1303T443 1277Q433 1310 439 1350L464 1546H566L542 1352Q539 1332 534 1313T520 1277Q544
1304 582 1324L748 1422L786 1334L621 1236Q602 1225 583 1218T547 1208Q582 1205 614 1182L756 1082L695 995L553 1094Q538 1104 526 1113T504 1137Q509 1122 509 1105T508 1068L483 871H381L406 1066Q409 1105 424 1138Q412 1125 398 1115T366 1094L201 995L161
1083Z" />
<glyph unicode="+" glyph-name="plus" horiz-adv-x="1187" d="M97 607L118 768H524L578 1197H750L696 768H1107L1086 607H677L625 176H452L505 607H97Z" />
<glyph unicode="," glyph-name="comma" horiz-adv-x="471" d="M38 142Q38 196 75 233T173 270Q208 270 234 258T279 223T305 172T314 110Q314 63 301 11T260 -93T193 -194T103 -285L65 -249Q50 -235 49 -216Q49 -203 66 -184T104 -137T147 -76T176 1H171Q141 1
117 12T75 41T48 85T38 142Z" />
<glyph unicode="-" glyph-name="hyphen" horiz-adv-x="714" d="M104 526L126 706H607L585 526H104Z" />
<glyph unicode="." glyph-name="period" horiz-adv-x="483" d="M42 127Q42 157 52 183T82 228T128 259T184 270T240 259T285 229T315 183T327 127Q327 96 316 71T285 26T240 -4T184 -15Q153 -15 128 -5T83 25T53 70T42 127Z" />
<glyph unicode="/" glyph-name="slash" horiz-adv-x="868" d="M-27 -96L703 1411Q721 1447 752 1467T822 1488H911L186 -15Q166 -55 131 -75T63 -96H-27Z" />
<glyph unicode="0" glyph-name="zero" horiz-adv-x="1187" d="M98 575Q98 806 146 978T275 1264T466 1434T698 1491Q789 1491 866 1454T998 1343T1085 1158T1116 898Q1116 666 1068 495T938 210T746 41T514 -15Q423 -15 347 21T215 132T129 317T98 575ZM315 562Q315
451 332 376T380 253T449 184T535 163Q603 163 667 201T784 326T867 556T898 909Q898 1020 880 1097T832 1221T762 1290T677 1312Q609 1312 544 1274T429 1147T347 915T315 562Z" />
<glyph unicode="1" glyph-name="one" horiz-adv-x="1187" d="M201 0L221 161H501L617 1102Q619 1126 623 1149T632 1197L396 995Q380 983 365 980T336 979T313 988T299 1004L244 1096L701 1477H876L714 161H966L945 0H201Z" />
<glyph unicode="2" glyph-name="two" horiz-adv-x="1187" d="M50 0L59 72Q61 94 73 118T108 162L584 625Q653 692 705 750T793 866T847 983T866 1111Q866 1209 815 1259T680 1309Q635 1309 596 1294T524 1253T467 1191T428 1111Q409 1071 384 1057T315 1051L206
1070Q233 1173 282 1252T398 1384T545 1464T715 1491Q798 1491 866 1466T983 1394T1058 1280T1085 1130Q1085 1036 1058 959T983 813T874 678T741 546L358 171Q405 184 452 192T541 201H924Q958 201 975 181T989 128L974 0H50Z" />
<glyph unicode="3" glyph-name="three" horiz-adv-x="1187" d="M85 370L182 410Q221 425 252 418T295 381Q307 349 322 311T362 241T426 187T525 165Q594 165 647 191T738 261T794 361T814 477Q814 520 800 557T753 621T661 663T516 678L535 831Q624 832 687 851T791
907T850 997T869 1116Q869 1211 819 1260T685 1309Q640 1309 600 1294T528 1253T470 1191T431 1111Q412 1071 387 1057T318 1051L210 1070Q237 1173 286 1252T402 1384T549 1464T719 1491Q803 1491 870 1467T983 1398T1055 1292T1080 1157Q1080 1075 1062 1013T1009
904T923 826T809 775Q918 738 971 663T1025 479Q1025 362 982 271T868 115T702 18T507 -16Q403 -16 330 11T208 89T130 211T85 370Z" />
<glyph unicode="4" glyph-name="four" horiz-adv-x="1187" d="M49 531L814 1475H1014L899 543H1081L1067 419Q1065 402 1052 389T1017 375H879L833 0H648L694 375H111Q89 375 74 388T57 423L49 531ZM273 543H715L782 1095Q785 1122 790 1151T803 1211L273 543Z" />
<glyph unicode="5" glyph-name="five" horiz-adv-x="1187" d="M77 147L153 239Q179 268 212 267Q234 267 256 252T308 217T380 181T483 165Q559 165 618 193T718 273T780 391T802 538Q802 646 742 709T564 773Q515 773 463 764T354 735L227 773L425 1475H1086L1075
1382Q1070 1336 1038 1308T938 1279H550L451 928Q549 950 631 949Q727 949 799 920T920 838T993 715T1017 564Q1017 433 972 326T850 144T669 26T449 -16Q387 -16 332 -3T230 32T145 85T77 147Z" />
<glyph unicode="6" glyph-name="six" horiz-adv-x="1092" d="M113 418Q113 484 126 546T167 672T236 799T334 934L725 1422Q742 1444 774 1459T844 1475H1032L563 930L503 859Q548 884 598 897T707 911Q779 911 842 886T953 813T1029 695T1058 534Q1058 418 1017
318T904 144T733 27T518 -16Q423 -16 348 15T220 103T141 241T113 418ZM314 409Q314 355 328 309T370 230T439 179T536 160Q602 160 658 185T755 256T820 364T844 500Q844 557 828 603T782 682T710 732T614 750Q549 750 495 723T400 650T337 543T314 409Z" />
<glyph unicode="7" glyph-name="seven" horiz-adv-x="1187" d="M169 0L853 1176Q872 1207 891 1231T933 1279H264Q245 1279 232 1294T221 1329L239 1475H1172L1161 1380Q1156 1339 1144 1313T1121 1269L444 74Q426 43 397 22T322 0H169Z" />
<glyph unicode="8" glyph-name="eight" horiz-adv-x="1187" d="M95 356Q95 515 171 620T400 771Q313 810 270 882T227 1052Q227 1145 263 1225T362 1364T512 1457T699 1491Q785 1491 855 1464T974 1390T1049 1279T1076 1143Q1076 1008 1012 911T823 767Q932 729
985 652T1038 462Q1038 352 999 264T889 113T724 17T515 -16Q419 -16 342 10T210 85T125 202T95 356ZM315 372Q315 324 329 284T370 214T439 168T535 152Q603 152 656 175T745 239T801 338T820 464Q820 519 803 559T757 626T688 666T600 679Q544 679 492 662T401
608T339 513T315 372ZM433 1050Q433 1011 443 975T475 910T534 865T621 848Q683 848 729 870T807 931T853 1021T868 1130Q868 1170 857 1206T823 1268T764 1311T680 1327Q619 1327 573 1305T495 1245T449 1157T433 1050Z" />
<glyph unicode="9" glyph-name="nine" horiz-adv-x="1187" d="M176 962Q176 1072 216 1168T325 1336T491 1449T697 1491Q789 1491 862 1461T985 1375T1062 1244T1089 1077Q1089 1000 1074 933T1032 804T964 680T872 552L494 49Q477 29 446 15T379 0H183L674 581Q694
605 712 627T749 673Q696 636 634 617T506 598Q439 598 380 622T275 692T203 805T176 962ZM391 987Q391 879 445 820T599 761Q666 761 719 786T809 854T867 954T887 1076Q887 1130 872 1174T829 1249T762 1297T674 1314Q613 1314 561 1290T471 1223T412 1120T391
987Z" />
<glyph unicode=":" glyph-name="colon" horiz-adv-x="520" d="M60 127Q60 157 70 183T100 228T146 259T202 270T258 259T303 229T333 183T345 127Q345 96 334 71T303 26T258 -4T202 -15Q171 -15 146 -5T101 25T71 70T60 127ZM144 873Q144 903 154 929T184 974T230
1005T286 1016T342 1005T387 975T417 929T429 873Q429 842 418 817T387 772T342 742T286 731Q255 731 230 741T185 771T155 816T144 873Z" />
<glyph unicode=";" glyph-name="semicolon" horiz-adv-x="543" d="M77 142Q77 196 114 233T212 270Q247 270 273 258T318 223T344 172T353 110Q353 63 340 11T299 -93T232 -194T142 -285L104 -249Q89 -235 88 -216Q88 -203 105 -184T143 -137T186 -76T215 1H210Q180
1 156 12T114 41T87 85T77 142ZM156 873Q156 903 166 929T196 974T242 1005T298 1016T354 1005T399 975T429 929T441 873Q441 842 430 817T399 772T354 742T298 731Q267 731 242 741T197 771T167 816T156 873Z" />
<glyph unicode="&lt;" glyph-name="less" horiz-adv-x="1187" d="M165 644L173 712L176 735L1029 1153L1010 994Q1008 976 997 961T962 934L522 724Q498 713 473 705T419 689Q446 683 469 675T513 654L902 445Q940 423 935 384L915 226L165 644Z" />
<glyph unicode="=" glyph-name="equal" horiz-adv-x="1187" d="M122 434L142 594H1033L1014 434H122ZM166 784L185 944H1076L1058 784H166Z" />
<glyph unicode="&gt;" glyph-name="greater" horiz-adv-x="1187" d="M173 226L194 384Q196 403 207 418T242 445L680 654Q704 665 729 674T782 689Q755 695 733 704T689 724L301 934Q281 945 274 960T268 994L287 1153L1038 735L1030 667H1029L1027 644L173 226Z" />
<glyph unicode="?" glyph-name="question" horiz-adv-x="870" d="M157 1340Q192 1371 232 1398T319 1445T418 1478T529 1490Q605 1490 665 1468T766 1406T829 1315T851 1200Q851 1114 828 1054T768 950T689 874T605 812T534 749T489 671L450 516H304L311 685Q313
735 339 774T403 846T485 911T566 979T629 1058T654 1160Q654 1232 611 1274T490 1316Q435 1316 395 1302T326 1270T278 1239T243 1225Q228 1225 220 1231T203 1252L157 1340ZM211 127Q211 157 221 183T251 228T297 259T353 270T409 259T454 229T484 183T496 127Q496
96 485 71T454 26T409 -4T353 -15Q322 -15 297 -5T252 25T222 70T211 127Z" />
<glyph unicode="@" glyph-name="at" horiz-adv-x="1576" d="M84 469Q84 598 114 717T200 940T333 1128T503 1274T702 1368T922 1402Q1044 1402 1151 1360T1338 1240T1465 1049T1512 796Q1512 667 1477 556T1380 363T1236 236T1062 189Q994 189 950 224T897 334Q832
257 765 224T625 191Q574 191 537 209T475 259T438 334T426 428Q426 490 442 555T491 680T570 794T678 888T816 952T981 975Q1051 975 1100 964T1193 932L1057 558Q1032 485 1027 440T1030 368T1059 333T1108 324Q1157 324 1202 359T1283 457T1340 606T1361 796Q1361
911 1328 997T1236 1143T1092 1233T904 1264Q813 1264 728 1237T570 1161T435 1041T331 883T263 693T239 477Q239 336 278 227T389 44T559 -67T778 -105Q851 -105 914 -97T1031 -74T1128 -41T1205 -2Q1224 9 1239 10T1264 8T1281 -6T1291 -27L1307 -88Q1198 -160
1064 -203T763 -246Q610 -246 485 -196T271 -54T133 171T84 469ZM593 452Q593 397 616 364T685 331Q711 331 738 340T792 372T844 436T892 538L999 834Q969 841 931 841Q863 841 802 807T694 719T621 594T593 452Z" />
<glyph unicode="A" glyph-name="A" horiz-adv-x="1312" d="M-75 0L643 1475H878L1234 0H1056Q1025 0 1008 15T984 54L913 385H340L188 54Q178 32 156 16T105 0H-75ZM416 551H879L763 1103Q757 1135 750 1176T735 1265Q718 1217 700 1176T669 1101L416 551Z" />
<glyph unicode="B" glyph-name="B" horiz-adv-x="1246" d="M89 0L270 1475H726Q845 1475 930 1451T1070 1384T1151 1279T1177 1142Q1177 1077 1159 1019T1105 911T1012 822T881 758Q1009 727 1072 655T1136 471Q1136 369 1099 283T991 134T820 36T592 0H89ZM342
182H610Q686 182 742 202T835 260T890 350T908 467Q908 556 851 608T669 660H400L342 182ZM420 822H636Q788 822 865 895T943 1102Q943 1201 885 1247T706 1293H478L420 822Z" />
<glyph unicode="C" glyph-name="C" horiz-adv-x="1274" d="M91 625Q91 816 151 975T317 1249T565 1427T869 1491Q949 1491 1014 1477T1132 1436T1228 1373T1307 1291L1228 1195Q1219 1184 1207 1176T1176 1167Q1163 1167 1150 1176T1120 1199T1081 1229T1028 1259T956
1282T858 1291Q745 1291 648 1246T480 1116T368 913T327 644Q327 536 354 451T431 306T548 214T697 182Q762 182 811 192T898 218T961 252T1006 287T1040 313T1068 324Q1079 324 1086 319T1098 309L1179 208Q1084 102 955 43T658 -16Q524 -16 419 32T241 165T130
367T91 625Z" />
<glyph unicode="D" glyph-name="D" horiz-adv-x="1449" d="M89 0L270 1475H785Q923 1475 1034 1428T1223 1296T1342 1095T1384 839Q1384 715 1358 605T1282 402T1163 234T1007 107T818 28T603 0H89ZM343 186H626Q743 186 839 230T1003 358T1110 562T1148 833Q1148
937 1122 1021T1046 1165T925 1256T763 1288H480L343 186Z" />
<glyph unicode="E" glyph-name="E" horiz-adv-x="1099" d="M89 0L270 1475H1120L1097 1287H479L423 834H916L893 653H401L343 187H964L940 0H89Z" />
<glyph unicode="F" glyph-name="F" horiz-adv-x="1086" d="M89 0L270 1475H1120L1097 1287H479L420 805H945L921 618H396L321 0H89Z" />
<glyph unicode="G" glyph-name="G" horiz-adv-x="1390" d="M91 635Q91 823 151 980T316 1251T565 1428T879 1491Q967 1491 1038 1476T1168 1434T1272 1371T1356 1294L1282 1198Q1264 1171 1238 1166T1186 1178Q1159 1194 1131 1214T1066 1251T979 1280T862 1291Q743
1291 645 1245T477 1114T367 910T328 643Q328 532 356 445T436 297T561 203T725 170Q772 170 813 174T890 188T960 211T1026 242L1064 547H881Q859 547 848 559T838 590L853 722H1294L1223 142Q1167 102 1108 73T982 23T843 -6T686 -16Q552 -16 442 32T254 167T134
374T91 635Z" />
<glyph unicode="H" glyph-name="H" horiz-adv-x="1462" d="M89 0L270 1475H503L422 825H1090L1169 1475H1402L1220 0H988L1069 659H401L321 0H89Z" />
<glyph unicode="I" glyph-name="I" horiz-adv-x="562" d="M89 0L269 1475H501L321 0H89Z" />
<glyph unicode="J" glyph-name="J" horiz-adv-x="829" d="M-37 11L-19 148Q-17 166 -6 179T29 193Q52 193 83 185T167 177Q217 177 260 194T338 249T396 348T431 496L550 1475H781L662 502Q647 379 607 283T505 120T357 19T166 -16Q111 -16 62 -10T-37 11Z" />
<glyph unicode="K" glyph-name="K" horiz-adv-x="1291" d="M89 0L269 1476H500L421 840H483Q519 840 543 850T588 885L1054 1422Q1078 1453 1105 1464T1167 1475H1364L811 848Q769 797 726 776Q754 765 774 746T811 694L1219 0H1017Q974 0 956 12T926 47L583 614Q569
641 547 652T481 664H399L318 0H89Z" />
<glyph unicode="L" glyph-name="L" horiz-adv-x="982" d="M89 0L270 1475H501L343 194H901L878 0H89Z" />
<glyph unicode="M" glyph-name="M" horiz-adv-x="1784" d="M89 0L270 1475H442Q457 1475 467 1473T486 1467T502 1456T517 1437L847 556Q855 532 861 508T873 458Q884 484 896 508T924 556L1467 1437Q1489 1461 1505 1468T1550 1475H1723L1542 0H1340L1465 1018Q1468
1042 1474 1071T1486 1130L947 249Q916 198 859 198H827Q800 198 780 210T751 249L423 1129Q422 1099 421 1073T417 1022L292 0H89Z" />
<glyph unicode="N" glyph-name="N" horiz-adv-x="1462" d="M89 0L270 1475H390Q421 1475 435 1469T463 1437L1066 376Q1068 403 1070 428T1075 476L1198 1475H1402L1220 0H1103Q1075 0 1058 9T1025 42L424 1103Q422 1079 421 1058T417 1019L292 0H89Z" />
<glyph unicode="O" glyph-name="O" horiz-adv-x="1534" d="M91 634Q91 758 118 869T194 1076T314 1248T472 1379T660 1462T874 1491Q1012 1491 1123 1442T1312 1306T1431 1099T1473 839Q1473 716 1446 605T1370 398T1250 227T1092 97T904 14T689 -15Q551 -15 440
34T252 169T133 375T91 634ZM328 641Q328 536 354 451T430 304T552 210T715 177Q832 177 927 223T1091 355T1197 562T1235 834Q1235 939 1209 1024T1132 1171T1009 1264T847 1297Q731 1297 636 1251T472 1118T366 911T328 641Z" />
<glyph unicode="P" glyph-name="P" horiz-adv-x="1171" d="M89 0L269 1475H697Q818 1475 906 1446T1053 1364T1138 1238T1166 1076Q1166 958 1129 860T1018 689T835 577T583 537H384L318 0H89ZM407 719H605Q687 719 749 744T852 813T913 920T934 1056Q934 1165
871 1229T675 1293H477L407 719Z" />
<glyph unicode="Q" glyph-name="Q" horiz-adv-x="1534" d="M91 634Q91 758 118 869T194 1076T314 1248T472 1379T660 1462T874 1491Q1012 1491 1123 1442T1312 1306T1431 1099T1473 839Q1473 718 1447 610T1374 407T1260 238T1109 106L1405 -297H1217Q1175 -297
1144 -285T1089 -244L904 14Q804 -15 696 -15Q693 -15 689 -15Q551 -15 440 34T252 169T133 375T91 634ZM328 641Q328 536 354 451T430 304T552 210T715 177Q832 177 927 223T1091 355T1197 562T1235 834Q1235 939 1209 1024T1132 1171T1009 1264T847 1297Q731
1297 636 1251T472 1118T366 911T328 641Z" />
<glyph unicode="R" glyph-name="R" horiz-adv-x="1212" d="M89 0L269 1475H673Q796 1475 884 1449T1030 1375T1114 1262T1142 1115Q1142 1028 1117 952T1044 815T929 709T775 640Q815 613 841 567L1129 0H924Q863 0 842 48L597 550Q584 576 566 587T511 598H392L318
0H89ZM413 765H582Q665 765 727 789T830 855T891 954T912 1078Q912 1181 848 1237T652 1293H477L413 765Z" />
<glyph unicode="S" glyph-name="S" horiz-adv-x="1048" d="M5 177L86 288Q96 300 111 308T142 317Q165 317 188 295T246 246T330 197T452 175Q515 175 566 194T652 249T707 335T726 447Q726 500 702 535T639 595T549 637T447 673T344 718T255 781T191 877T167
1016Q167 1109 200 1194T298 1345T453 1450T659 1490Q717 1490 770 1478T871 1444T957 1392T1025 1324L957 1226Q944 1209 932 1200T902 1191T863 1208T812 1245T740 1282T638 1299Q578 1299 531 1281T451 1232T403 1158T386 1066Q386 1016 410 983T474 925T564
881T667 841T771 794T861 730T925 637T949 506Q949 400 913 305T808 138T642 26T422 -16Q357 -16 297 -3T183 36T84 97T5 177Z" />
<glyph unicode="T" glyph-name="T" horiz-adv-x="1129" d="M111 1282L133 1475H1203L1179 1282H761L603 0H374L530 1282H111Z" />
<glyph unicode="U" glyph-name="U" horiz-adv-x="1410" d="M144 584L252 1475H482L374 584Q369 544 369 506Q369 462 376 422Q389 348 424 296T516 215T650 185Q727 185 791 214T903 296T983 422T1025 584L1135 1475H1365L1256 584Q1240 455 1188 345T1054 154T864
29T626 -17Q497 -17 400 28T240 154T153 344Q138 411 138 486Q138 534 144 584Z" />
<glyph unicode="V" glyph-name="V" horiz-adv-x="1310" d="M104 1475H290Q320 1475 337 1460T359 1420L581 442Q591 403 599 358T613 263Q629 312 647 357T685 442L1144 1420Q1152 1440 1175 1457T1228 1475H1413L683 0H474L104 1475Z" />
<glyph unicode="W" glyph-name="W" horiz-adv-x="1970" d="M121 1475H302Q332 1475 350 1460T372 1420L515 455Q517 424 520 389T525 317Q536 355 548 390T574 455L976 1420Q985 1440 1007 1457T1059 1475H1112Q1142 1475 1160 1460T1184 1420L1349 455Q1354 425
1357 391T1364 321Q1375 358 1385 391T1406 455L1786 1420Q1793 1442 1817 1458T1871 1475H2052L1449 0H1240L1058 1072Q1055 1089 1052 1111T1047 1156Q1039 1132 1031 1111T1016 1072L570 0H362L121 1475Z" />
<glyph unicode="X" glyph-name="X" horiz-adv-x="1269" d="M-79 0L498 787L160 1475H369Q393 1475 403 1468T422 1443L665 912Q670 922 676 932T689 954L1031 1441Q1042 1458 1055 1466T1085 1475H1325L817 798L1196 0H989Q965 0 952 13T932 42L655 656Q651 648
646 640T636 624L225 42Q210 18 192 9T152 0H-79Z" />
<glyph unicode="Y" glyph-name="Y" horiz-adv-x="1219" d="M103 1475H308Q338 1475 355 1460T380 1421L596 876Q619 810 631 748Q645 779 662 810T699 876L1052 1421Q1064 1441 1084 1458T1134 1475H1325L719 581L647 0H417L489 581L103 1475Z" />
<glyph unicode="Z" glyph-name="Z" horiz-adv-x="1143" d="M-33 0L-24 72Q-22 88 -15 101T2 129L858 1287H167L190 1475H1192L1182 1402Q1180 1386 1173 1372T1155 1343L302 187H1019L995 0H-33Z" />
<glyph unicode="[" glyph-name="bracketleft" horiz-adv-x="603" d="M59 -304L290 1577H663L652 1492Q650 1469 632 1454T589 1438H451L253 -165H393Q418 -165 431 -181T442 -221L432 -304H59Z" />
<glyph unicode="\" glyph-name="backslash" horiz-adv-x="861" d="M165 1488H254Q293 1488 319 1468T354 1411L714 -96H625Q591 -96 561 -76T521 -15L165 1488Z" />
<glyph unicode="]" glyph-name="bracketright" horiz-adv-x="604" d="M-58 -304L-47 -221Q-45 -197 -27 -181T15 -165H155L352 1438H213Q187 1438 174 1453T163 1492L173 1577H547L315 -304H-58Z" />
<glyph unicode="^" glyph-name="asciicircum" horiz-adv-x="1187" d="M200 800L574 1475H716L1091 800H931Q911 800 897 811T873 839L693 1163Q678 1190 667 1214T648 1263Q640 1238 630 1214T605 1163L428 839Q420 824 406 812T368 800H200Z" />
<glyph unicode="_" glyph-name="underscore" horiz-adv-x="910" d="M-29 -296L-11 -156H732L715 -296H-29Z" />
<glyph unicode="`" glyph-name="grave" horiz-adv-x="753" d="M266 1491H457Q491 1491 506 1479T534 1441L642 1193H526Q503 1193 490 1200T463 1226L266 1491Z" />
<glyph unicode="a" glyph-name="a" horiz-adv-x="1057" d="M43 355Q43 448 66 537T133 704T236 847T371 960T533 1034T715 1060Q784 1060 851 1049T983 1012L858 0H742Q700 0 685 21T670 75L683 244Q647 185 606 137T520 56T425 4T322 -15Q262 -15 211 8T122 79T64
195T43 355ZM262 395Q262 278 299 223T406 167Q452 167 495 197T578 280T651 404T711 560L753 896Q736 898 719 899T684 901Q596 901 519 860T385 750T295 589T262 395Z" />
<glyph unicode="b" glyph-name="b" horiz-adv-x="1093" d="M50 0L233 1516H449L361 811Q438 926 533 993T735 1061Q801 1061 853 1037T943 964T1000 843T1020 675Q1020 588 1002 503T952 342T872 200T769 87T648 12T511 -15Q430 -15 365 18T257 111L246 62Q236
29 221 15T168 0H50ZM292 238Q329 192 378 174T477 155Q526 155 569 175T648 231T713 316T761 420T791 535T802 653Q802 769 762 827T650 885Q605 885 558 855T468 773T387 650T323 495L292 238Z" />
<glyph unicode="c" glyph-name="c" horiz-adv-x="929" d="M51 418Q51 502 69 583T122 735T204 866T313 969T444 1036T594 1060Q698 1060 769 1023T895 914L825 830Q817 822 807 816T784 809Q769 809 755 820T720 845T669 871T590 883Q525 883 468 848T367 751T297
603T271 416Q271 295 325 227T477 158Q540 158 582 176T654 216T704 256T750 274Q772 274 790 254L845 186Q793 128 745 90T648 28T547 -5T431 -15Q340 -15 270 16T151 104T77 241T51 418Z" />
<glyph unicode="d" glyph-name="d" horiz-adv-x="1094" d="M49 371Q49 458 67 543T118 704T197 846T300 959T421 1034T557 1061Q631 1061 691 1033T795 955L864 1516H1079L892 0H776Q734 0 720 21T705 75L718 252Q679 191 635 142T542 58T441 4T334 -15Q202 -15
126 81T49 371ZM266 393Q266 277 306 219T418 161Q463 161 509 190T599 272T680 396T744 551L776 809Q739 854 690 872T591 890Q517 890 457 846T355 730T289 570T266 393Z" />
<glyph unicode="e" glyph-name="e" horiz-adv-x="989" d="M51 415Q51 497 68 576T119 727T200 860T309 965T443 1034T600 1059Q681 1059 740 1036T839 977T898 896T918 810Q918 741 890 684T789 581T589 501T264 446V420Q264 290 320 224T489 158Q560 158 607
177T687 220T746 262T799 282Q821 282 839 261L894 194Q841 140 790 100T685 35T574 -3T446 -15Q355 -15 283 15T158 102T79 237T51 415ZM285 591Q426 609 511 631T643 681T705 738T721 802Q721 818 714 836T691 869T650 893T588 903Q531 903 482 880T395 814T328
715T285 591Z" />
<glyph unicode="f" glyph-name="f" horiz-adv-x="667" d="M81 -254L217 870L126 885Q104 890 92 902T82 941L93 1030H237L248 1118Q259 1207 294 1278T382 1398T504 1473T653 1499Q716 1499 772 1479L752 1364Q750 1353 743 1347T724 1339T698 1337T668 1337Q625
1337 590 1325T527 1287T481 1217T455 1111L444 1030H691L671 872H432L332 39L282 -162Q268 -206 242 -230T169 -254H81Z" />
<glyph unicode="g" glyph-name="g" horiz-adv-x="1010" d="M-61 -106Q-61 -37 -32 14T46 102T159 160T295 193Q360 202 425 202Q432 202 438 202Q511 201 577 190Q571 207 567 226T563 265Q563 295 572 328T600 401Q560 374 512 360T398 346Q339 346 286 365T193
424T130 521T106 658Q106 733 134 806T216 935T351 1026T537 1061Q593 1061 644 1048T737 1008H1026L1017 935Q1011 890 971 877L854 850Q868 802 868 749Q868 700 857 661T830 589T794 526T759 466T733 404T722 334Q722 292 741 257T783 184T825 103T844 4Q843
-72 809 -139T710 -258T555 -339T347 -370Q254 -370 178 -351T49 -296T-32 -213T-61 -106ZM147 -80Q147 -147 202 -181T366 -216Q428 -216 479 -200T566 -157T623 -92T643 -13Q643 6 641 23T634 57Q525 76 443 76Q428 76 414 75Q322 71 263 50T175 -5T147 -80ZM307
656Q307 572 346 527T460 481Q510 481 548 503T613 563T653 646T668 740Q668 823 627 866T512 909Q462 909 424 888T360 832T321 752T307 656Z" />
<glyph unicode="h" glyph-name="h" horiz-adv-x="1096" d="M50 0L233 1516H453L371 842Q450 951 543 1006T735 1061Q802 1061 853 1035T938 958Q971 908 983 834Q989 797 989 755T983 665L905 0H686L764 665Q769 704 769 735Q770 794 752 828Q726 880 653 880Q610
880 565 857T477 789T398 683T335 546L269 0H50Z" />
<glyph unicode="i" glyph-name="i" horiz-adv-x="487" d="M60 0L185 1044H402L276 0H60ZM184 1360Q184 1390 196 1417T227 1464T272 1495T325 1507Q353 1507 378 1496T424 1464T456 1418T468 1360Q468 1330 456 1304T423 1257T377 1225T324 1213Q296 1213 271
1225T227 1257T196 1303T184 1360Z" />
<glyph unicode="j" glyph-name="j" horiz-adv-x="485" d="M-184 -351L-163 -231Q-157 -211 -143 -208T-94 -205Q-59 -205 -34 -197T8 -171T36 -124T52 -54L186 1044H401L267 -54Q259 -120 235 -178T169 -279T69 -346T-65 -371Q-104 -371 -131 -366T-184 -351ZM177
1360Q177 1390 189 1417T221 1464T266 1495T318 1507Q346 1507 371 1496T417 1464T449 1418T462 1360Q462 1330 450 1304T417 1257T370 1225T316 1213Q289 1213 265 1225T221 1257T189 1303T177 1360Z" />
<glyph unicode="k" glyph-name="k" horiz-adv-x="999" d="M48 0L234 1516H451L343 637H372Q395 637 408 643T438 669L748 1004Q764 1024 782 1034T826 1044H1022L649 647Q617 608 579 585Q596 571 609 553T633 511L916 0H727Q701 0 685 8T658 41L426 451Q415 475
402 481T359 487H325L265 0H48Z" />
<glyph unicode="l" glyph-name="l" horiz-adv-x="476" d="M54 0L238 1516H455L270 0H54Z" />
<glyph unicode="m" glyph-name="m" horiz-adv-x="1618" d="M50 0L176 1047H287Q323 1047 341 1029T360 973L351 825Q425 943 511 1002T694 1061Q794 1061 847 993T905 797Q981 933 1074 997T1274 1061Q1408 1062 1468 958Q1512 883 1512 763Q1512 717 1505 665L1426
0H1210L1288 665Q1294 710 1294 746Q1294 754 1294 760Q1292 800 1282 826T1250 865T1195 878Q1154 878 1114 857T1036 794T968 694T911 558L846 0H630L709 665Q715 713 715 750Q715 754 715 760Q714 800 704 826T673 865T618 878Q573 878 533 855T455 788T386
684T330 544L265 0H50Z" />
<glyph unicode="n" glyph-name="n" horiz-adv-x="1097" d="M51 0L176 1047H287Q323 1047 341 1029T360 973L349 808Q431 934 531 997T738 1061Q804 1061 855 1035T939 958Q972 908 984 834Q990 796 990 751Q990 710 985 665L906 0H687L766 665Q771 703 771 734Q771
794 753 828Q726 878 655 878Q610 878 563 852T471 780T390 667T328 520L270 0H51Z" />
<glyph unicode="o" glyph-name="o" horiz-adv-x="1067" d="M52 421Q52 555 94 671T211 875T383 1011T595 1061Q681 1061 753 1032T878 947T960 810T990 625Q990 537 971 455T917 302T832 172T723 73T594 8T449 -15Q363 -15 290 14T165 99T82 236T52 421ZM272 423Q272
157 468 157Q537 157 593 195T688 297T749 446T771 624Q771 759 722 824T574 889Q504 889 449 851T354 750T294 601T272 423Z" />
<glyph unicode="p" glyph-name="p" horiz-adv-x="1093" d="M7 -347L177 1047H288Q324 1047 342 1029T361 973L349 793Q387 854 431 903T525 987T627 1042T735 1061Q801 1061 853 1037T943 964T1000 843T1020 675Q1020 588 1002 503T952 342T872 200T769 87T648
12T511 -15Q437 -15 377 12T274 89L221 -347H7ZM292 238Q329 192 378 174T478 155Q527 155 570 175T649 231T713 316T761 420T791 535T802 653Q802 769 763 827T650 885Q605 885 559 856T469 774T389 652T325 498L292 238Z" />
<glyph unicode="q" glyph-name="q" horiz-adv-x="1058" d="M43 355Q43 495 94 623T237 848T450 1002T715 1060Q785 1060 852 1049T983 1012L815 -347H674Q652 -347 639 -340T617 -319T607 -291T606 -260L667 216Q597 108 511 47T322 -15Q262 -15 211 8T122 79T64
195T43 355ZM263 395Q263 278 300 223T407 167Q453 167 496 196T579 279T652 403T711 559L754 896Q737 898 719 899T685 901Q596 901 519 860T386 750T296 589T263 395Z" />
<glyph unicode="r" glyph-name="r" horiz-adv-x="712" d="M50 0L176 1047H287Q323 1047 341 1029T360 973L348 775Q389 857 435 916T533 1009T637 1050Q649 1052 661 1052Q702 1052 745 1033L706 822Q657 842 612 842Q539 842 478 788Q380 702 321 467L265 0H50Z" />
<glyph unicode="s" glyph-name="s" horiz-adv-x="825" d="M-10 112L44 196Q54 211 67 219T100 228Q118 228 136 215T178 184T236 153T327 139Q373 139 408 152T469 187T507 239T520 302Q520 339 502 363T455 406T388 437T311 465T234 497T167 543T119 610T101
708Q101 776 128 839T205 952T327 1031T494 1061Q591 1061 665 1028T792 941L735 861Q726 847 717 841T692 835Q676 835 659 845T617 869T560 893T481 904Q438 904 404 893T346 863T308 817T295 760Q295 726 313 703T360 663T428 631T505 601T583 566T650 518T698
450T716 354Q716 280 687 213T603 95T471 14T298 -16Q199 -16 119 20T-10 112Z" />
<glyph unicode="t" glyph-name="t" horiz-adv-x="738" d="M72 919L82 1008L241 1032L323 1334Q329 1351 341 1362T373 1373H489L446 1030H710L691 871H427L369 391Q364 349 361 324T356 284T354 264T353 255Q353 210 374 187T434 163Q459 163 476 169T507 183T529
198T547 205Q558 205 563 201T573 184L621 77Q567 32 501 8T367 -16Q262 -16 200 42T135 206Q135 213 135 222T137 250T142 300T152 379L212 871H106Q89 871 79 883Q71 892 71 909Q71 913 72 919Z" />
<glyph unicode="u" glyph-name="u" horiz-adv-x="1096" d="M87 381L166 1044H385L306 381Q301 343 301 312Q301 252 319 218Q346 167 417 167Q460 167 506 191T594 259T674 365T736 505L802 1044H1021L895 0H785Q705 0 706 78L716 228Q636 106 537 46T334 -15Q268
-15 217 11T133 87T88 212Q82 251 82 295Q82 336 87 381Z" />
<glyph unicode="v" glyph-name="v" horiz-adv-x="994" d="M66 1044H245Q269 1044 283 1032T300 1001L431 393Q438 347 442 303T451 215Q464 258 480 302T515 393L799 1001Q807 1019 824 1031T861 1044H1033L515 0H331L66 1044Z" />
<glyph unicode="w" glyph-name="w" horiz-adv-x="1497" d="M73 1044H239Q263 1044 277 1033T294 1001L372 393Q375 352 376 314T380 237Q393 276 408 314T439 393L694 1005Q701 1023 717 1035T755 1047H847Q871 1047 884 1035T900 1005L1001 393Q1006 352 1011
313T1020 236Q1031 274 1043 312T1070 393L1302 1001Q1308 1019 1324 1031T1362 1044H1522L1087 0H919Q890 0 884 40L771 690Q768 707 767 725T763 762Q757 744 750 726T736 689L463 40Q448 0 415 0H253L73 1044Z" />
<glyph unicode="x" glyph-name="x" horiz-adv-x="975" d="M-74 0L344 563L98 1044H296Q320 1044 330 1038T347 1016L505 681Q511 693 517 705T534 730L741 1012Q759 1044 790 1044Q791 1044 792 1044H989L620 563L893 0H695Q671 0 658 12T638 42L461 433Q456 421
450 410T437 389L180 41Q169 25 155 13T119 0H-74Z" />
<glyph unicode="y" glyph-name="y" horiz-adv-x="995" d="M68 1044H250Q276 1044 288 1032T304 1001L452 409Q457 385 460 361T466 312Q476 337 487 361T509 410L801 1002Q810 1020 827 1032T862 1044H1037L340 -299Q315 -347 267 -347H104L334 73L68 1044Z" />
<glyph unicode="z" glyph-name="z" horiz-adv-x="878" d="M-23 0L-11 92Q-10 107 0 129T26 170L589 873H113L133 1044H868L856 952Q854 928 844 907T819 868L260 171H745L726 0H-23Z" />
<glyph unicode="{" glyph-name="braceleft" horiz-adv-x="588" d="M60 573L76 699Q152 699 185 761T219 952Q219 970 218 994T215 1044T212 1094T211 1138Q211 1347 306 1462T594 1577H643L633 1481Q630 1457 612 1448T582 1438H569Q497 1438 454 1384T403 1232Q398
1182 398 1135T397 1043T398 955T394 869Q387 778 339 717T219 635Q277 617 309 568T342 454Q342 394 328 337T296 222T265 105T250 -17Q250 -84 281 -124T372 -165H385Q397 -165 412 -175T425 -210L414 -304H362Q286 -304 231 -283T138 -225T84 -135T66 -22Q66
46 81 107T114 226T148 341T164 457Q164 508 139 540T60 573Z" />
<glyph unicode="|" glyph-name="bar" horiz-adv-x="540" d="M184 -347V1578H354V-347H184Z" />
<glyph unicode="}" glyph-name="braceright" horiz-adv-x="588" d="M-53 -304L-40 -210Q-39 -198 -34 -190T-20 -176T-4 -168T10 -165H23Q95 -165 138 -112T188 40Q192 90 193 137T195 228T195 316T199 402Q202 446 215 484T252 553T305 604T372 635Q314 653 282
703T249 818Q249 877 263 935T295 1051T327 1168T342 1290Q342 1357 311 1397T220 1438H208Q202 1438 194 1440T179 1448T170 1461T168 1481L178 1577H229Q304 1577 360 1556T452 1497T507 1407T525 1292Q525 1225 510 1165T477 1046T444 930T428 815Q428 764 453
732T530 699L516 573Q440 573 407 511T373 319Q373 301 374 277T376 228T378 179T379 135Q379 -74 284 -189T-2 -304H-53Z" />
<glyph unicode="~" glyph-name="asciitilde" horiz-adv-x="1187" d="M109 415Q109 490 128 550T186 654T279 721T403 745Q456 745 507 730T605 697T692 664T769 648Q830 648 864 687T900 797H1077Q1077 722 1057 661T1000 557T907 489T782 465Q728 465 678 480T581
514T494 547T417 563Q356 563 322 523T286 415H109Z" />
</font>
</defs>
</svg>
