<?xml version="1.0" standalone="no"?> <!DOCTYPE svg PUBLIC "-//W3C//DTD SVG 1.0//EN" "http://www.w3.org/TR/2001/REC-SVG-20010904/DTD/svg10.dtd" > <svg xmlns="http://www.w3.org/2000/svg" width="100%" height="100%">
<defs >
<font id="Lato" horiz-adv-x="993" ><font-face
    font-family="Lato"
    units-per-em="2048"
    panose-1="2 15 3 2 2 2 4 3 2 3"
    ascent="2135"
    descent="-575"
    alphabetic="0" />
<missing-glyph horiz-adv-x="748" d="M68 0V1365H612V0H68ZM136 68H544V1297H136V68Z" />
<glyph unicode=" " glyph-name="space" horiz-adv-x="535" />
<glyph unicode="!" glyph-name="exclam" horiz-adv-x="468" d="M98 60Q98 93 120 116T175 139Q208 139 231 116T254 60Q254 27 231 6T175 -16Q142 -16 120 5T98 60ZM198 492Q203 551 207 598T215 686T223 768T233 854L305 1440H359L288 854Q282 808 276 768T264
687T251 598T233 492H198Z" />
<glyph unicode="&quot;" glyph-name="quotedbl" horiz-adv-x="621" d="M211 983L225 1140L263 1440H307L270 1140L247 983Q244 965 227 965Q213 965 211 983ZM464 983L478 1140L516 1440H560L523 1140L500 983Q497 965 480 965Q466 965 464 983Z" />
<glyph unicode="#" glyph-name="numbersign" horiz-adv-x="1187" d="M83 487L86 503H317L465 937H195L199 955Q202 974 227 975H475L626 1414Q635 1440 658 1440H680L520 975H853L1013 1440H1036Q1046 1440 1050 1433T1050 1411L899 975H1137L1130 956Q1127 937
1103 937H889L741 503H996Q1019 503 1016 479L1011 464H731L572 0H553Q542 0 537 6T537 28L685 464H352L204 26Q199 12 191 6T172 0H150L307 464H100Q90 464 85 469T83 487ZM364 503H696L844 937H511L364 503Z" />
<glyph unicode="$" glyph-name="dollar" horiz-adv-x="1187" d="M99 171L115 189Q125 198 135 199Q142 199 153 187T182 156T225 116T286 75T369 42T480 28L597 738Q537 758 480 782T378 843T307 930T280 1056Q280 1134 310 1205T396 1331T532 1419T714 1455L744
1638Q747 1661 766 1661H786L753 1455Q854 1451 926 1415T1058 1311L1046 1293Q1040 1283 1028 1283Q1017 1283 1000 1302T952 1344T871 1388T745 1411L642 777Q707 754 771 730T885 670T966 581T997 451Q997 359 963 276T866 130T714 28T512 -15L474 -252Q472
-275 452 -274H431L473 -16Q404 -15 349 -2T249 36T167 94T99 171ZM330 1066Q330 1005 352 962T413 886T501 832T605 791L707 1410Q617 1407 547 1378T428 1302T355 1193T330 1066ZM519 28Q617 32 696 66T830 156T915 285T945 439Q945 506 919 551T850 629T750
684T634 726L519 28Z" />
<glyph unicode="%" glyph-name="percent" horiz-adv-x="1458" d="M148 0L1266 1427Q1272 1433 1277 1436T1292 1440H1328L209 12Q200 0 184 0H148ZM159 955T159 1028Q159 1136 185 1216T255 1349T357 1429T479 1456Q528 1456 570 1437T644 1382T693 1290T711 1160Q711
1052 684 972T612 839T510 760T390 734Q340 734 298 752T225 808T177 900ZM201 1129T201 1028Q201 961 215 913T256 833T318 787T395 771Q448 771 497 793T584 863T644 984T667 1159Q667 1226 652 1274T612 1355T551 1403T475 1419Q421 1419 372 1396T284 1326T224
1204ZM774 276Q774 384 800 464T870 598T972 678T1095 705Q1144 705 1186 687T1260 631T1308 538T1326 409Q1326 301 1299 221T1228 89T1125 10T1006 -16Q956 -16 913 2T840 57T792 149T774 276ZM816 276Q816 209 831 162T872 82T933 35T1011 19Q1064 19 1112 42T1199
112T1259 234T1282 409Q1282 476 1267 524T1227 604T1166 653T1091 669Q1037 669 987 646T899 575T839 452T816 276Z" />
<glyph unicode="&amp;" glyph-name="ampersand" horiz-adv-x="1303" d="M81 313Q81 398 112 474T196 613T321 723T473 800Q418 875 390 944T362 1089Q362 1169 389 1236T465 1353T579 1429T725 1456Q783 1456 833 1436T919 1380T975 1292T996 1178L970 1175Q962
1174 957 1178T950 1194Q949 1225 937 1263T898 1335T827 1391T722 1414Q653 1414 597 1391T499 1325T436 1224T413 1098Q413 1021 448 942T550 783L928 328Q983 406 1019 487T1069 640Q1071 648 1075 653T1090 658H1120Q1108 574 1066 478T956 292L1199 0H1157Q1142
0 1133 3T1113 18L923 250Q876 194 820 145T700 61T565 5T416 -16Q349 -16 289 6T182 70T109 173T81 313ZM135 319Q135 246 161 192T228 100T322 45T425 27Q497 27 563 47T688 101T800 182T895 284L512 751Q507 756 504 760T496 770Q418 740 352 695T238 591T162
464T135 319Z" />
<glyph unicode="&apos;" glyph-name="quotesingle" horiz-adv-x="368" d="M211 983L225 1140L263 1440H307L270 1140L247 983Q244 965 227 965Q213 965 211 983Z" />
<glyph unicode="(" glyph-name="parenleft" horiz-adv-x="498" d="M120 456Q120 540 124 620T143 782T183 949T252 1128T357 1325T506 1548L527 1535Q531 1532 533 1526T527 1508Q437 1383 370 1266T258 1026T191 767T168 466Q168 383 177 295T204 120T250 -53T314
-215Q320 -226 317 -232T308 -242L285 -255Q241 -164 210 -72T158 111T129 288T120 456Z" />
<glyph unicode=")" glyph-name="parenright" horiz-adv-x="498" d="M-18 -215Q72 -90 139 33T250 283T317 545T340 827Q340 910 331 998T304 1174T257 1347T193 1508Q188 1518 191 1525T199 1535L224 1548Q311 1364 349 1182T387 837Q387 753 383 673T364 511T325
344T257 166T152 -32T3 -255L-18 -242Q-30 -235 -18 -215Z" />
<glyph unicode="*" glyph-name="asterisk" horiz-adv-x="804" d="M210 1094L409 1211Q421 1218 430 1221T458 1229Q441 1234 433 1236T413 1247L242 1365L261 1394L432 1276Q443 1269 449 1262T467 1239Q464 1257 463 1268T464 1294L492 1522H524L497 1294Q495
1280 492 1269T481 1241Q493 1255 502 1262T525 1276L724 1394L735 1365L537 1247Q524 1239 514 1235T488 1228Q503 1223 512 1221T531 1211L705 1094L685 1065L514 1183Q502 1190 495 1195T478 1214Q480 1197 481 1188T481 1164L453 937H420L449 1164Q451 1178
453 1188T464 1215Q450 1201 442 1196T421 1183L222 1065L210 1094Z" />
<glyph unicode="+" glyph-name="plus" horiz-adv-x="1187" d="M126 666L131 707H584L642 1181H685L627 707H1081L1077 666H622L563 190H520L579 666H126Z" />
<glyph unicode="," glyph-name="comma" horiz-adv-x="421" d="M69 67Q69 97 88 118T140 139Q175 139 195 115T216 48Q216 -34 179 -112T82 -250L73 -241Q70 -239 70 -235T69 -229Q69 -223 84 -204T119 -154T156 -83T177 4Q161 -7 137 -7Q107 -7 88 13T69 67Z" />
<glyph unicode="-" glyph-name="hyphen" horiz-adv-x="734" d="M150 582L157 627H581L575 582H150Z" />
<glyph unicode="." glyph-name="period" horiz-adv-x="464" d="M91 60Q91 93 113 116T168 139Q201 139 224 116T247 60Q247 27 224 6T168 -16Q135 -16 113 5T91 60Z" />
<glyph unicode="/" glyph-name="slash" horiz-adv-x="813" d="M-3 -82L780 1455Q791 1477 815 1477H838L55 -59Q49 -72 39 -77T17 -82H-3Z" />
<glyph unicode="0" glyph-name="zero" horiz-adv-x="1187" d="M123 563Q123 789 170 957T297 1236T480 1401T696 1456Q780 1456 852 1420T978 1311T1061 1131T1091 878Q1091 651 1043 483T916 204T733 40T516 -14Q432 -14 360 21T235 129T153 310T123 563ZM176
561Q176 425 202 325T276 160T386 62T521 30Q620 30 713 80T878 234T992 498T1035 880Q1035 1015 1009 1115T937 1281T828 1380T691 1412Q592 1412 500 1362T335 1207T220 942T176 561Z" />
<glyph unicode="1" glyph-name="one" horiz-adv-x="1187" d="M239 0L245 41H559L714 1311Q716 1326 718 1341T725 1373L367 1060Q358 1052 350 1053T336 1061L323 1081L744 1447H784L611 41H914L908 0H239Z" />
<glyph unicode="2" glyph-name="two" horiz-adv-x="1187" d="M95 0L98 19Q99 26 104 33T114 45L643 560Q715 631 777 695T886 827T958 966T985 1124Q985 1198 962 1252T900 1341T809 1393T701 1411Q632 1411 572 1388T462 1324T377 1224T321 1097Q316 1083 308
1078T289 1073L263 1076Q285 1165 327 1235T428 1355T558 1430T710 1456Q776 1456 835 1436T939 1376T1011 1274T1038 1128Q1038 1034 1009 957T931 809T817 673T678 537L169 40Q195 44 225 46T288 49H923Q943 49 940 30L936 0H95Z" />
<glyph unicode="3" glyph-name="three" horiz-adv-x="1187" d="M129 348L148 355Q156 359 168 358T183 339Q185 331 189 305T203 243T235 170T292 101T382 49T514 28Q612 28 689 65T819 160T900 290T928 432Q928 492 908 545T844 637T730 698T562 722L566 759Q660
762 736 789T867 866T950 984T979 1137Q979 1208 957 1259T896 1344T808 1394T701 1411Q631 1411 571 1388T461 1324T375 1224T318 1097Q313 1083 306 1078T288 1073L263 1076Q285 1165 327 1235T428 1355T557 1430T709 1456Q775 1456 833 1437T936 1380T1005 1283T1031
1145Q1031 1061 1004 994T932 875T826 792T701 745Q770 735 823 708T910 641T963 548T981 434Q981 341 944 259T842 116T692 19T509 -16Q431 -16 374 0T275 44T208 109T166 185T142 268T129 348Z" />
<glyph unicode="4" glyph-name="four" horiz-adv-x="1187" d="M79 471L874 1442H918L799 475H1062L1059 450Q1057 433 1037 432H794L740 0H694L746 432H102Q91 432 87 436T81 449L79 471ZM137 475H752L855 1315Q858 1338 864 1364L137 475Z" />
<glyph unicode="5" glyph-name="five" horiz-adv-x="1187" d="M131 98L148 119Q155 129 168 129Q177 129 198 114T254 80T339 47T457 32Q546 32 627 64T771 160T869 314T906 523Q906 594 887 653T827 756T725 823T578 848Q523 848 458 838T318 808L286 821L463
1440H1043L1040 1417Q1039 1406 1031 1399T1007 1392H498L342 855Q413 874 474 883T590 892Q683 892 752 865T868 789T938 672T962 525Q962 397 919 297T804 127T640 21T449 -16Q397 -16 349 -7T261 19T188 56T131 98Z" />
<glyph unicode="6" glyph-name="six" horiz-adv-x="1092" d="M160 375Q160 433 173 490T214 608T285 735T389 877L831 1426Q840 1439 860 1440H906L440 867Q396 812 362 766T301 677Q334 717 374 748T460 802T554 837T654 849Q734 849 798 822T906 746T975 630T999
481Q999 370 962 279T860 122T705 20T513 -16Q433 -16 368 10T256 87T185 210T160 375ZM210 372Q210 298 231 235T291 126T387 54T517 28Q614 28 693 61T829 155T916 297T947 476Q947 552 926 613T864 717T768 783T640 807Q543 807 464 769T328 669T241 530T210
372Z" />
<glyph unicode="7" glyph-name="seven" horiz-adv-x="1187" d="M251 0L1057 1364Q1065 1377 1077 1392H279Q262 1392 264 1409L267 1440H1140L1137 1415Q1134 1398 1125 1386L323 22Q310 0 284 0H251Z" />
<glyph unicode="8" glyph-name="eight" horiz-adv-x="1187" d="M138 325Q138 423 167 497T246 623T361 707T501 752Q446 766 404 794T333 861T290 948T275 1051Q275 1135 305 1208T391 1337T524 1424T696 1456Q776 1456 838 1431T943 1363T1008 1261T1030 1138Q1030
1066 1009 1003T947 890T850 803T720 751Q777 740 827 715T913 649T970 554T991 426Q991 323 955 241T856 102T705 14T517 -16Q431 -16 361 8T242 76T166 183T138 325ZM191 330Q191 261 215 206T282 110T385 49T521 27Q610 27 686 54T818 133T906 259T938 425Q938
514 906 573T825 666T718 714T608 728Q567 728 521 721T428 696T339 648T263 574T211 470T191 330ZM327 1053Q327 998 343 947T395 857T484 795T612 771Q702 771 770 801T885 882T954 998T978 1135Q978 1194 959 1245T904 1333T814 1392T692 1414Q609 1414 542
1387T427 1311T353 1196T327 1053Z" />
<glyph unicode="9" glyph-name="nine" horiz-adv-x="1187" d="M229 978Q229 1081 266 1168T368 1320T517 1420T699 1456Q776 1456 838 1429T945 1351T1014 1230T1039 1074Q1039 1006 1025 950T983 839T913 725T817 593L386 12Q381 5 374 3T358 0H311L772 606Q815
663 850 710T912 803Q880 761 840 728T755 671T660 636T561 624Q484 624 423 650T318 724T252 836T229 978ZM283 981Q283 909 303 851T362 752T455 689T578 666Q671 666 746 702T876 797T959 930T988 1079Q988 1151 967 1212T907 1318T814 1387T693 1412Q606 1412
531 1381T401 1293T314 1157T283 981Z" />
<glyph unicode=":" glyph-name="colon" horiz-adv-x="471" d="M95 60Q95 93 117 116T172 139Q205 139 228 116T251 60Q251 27 228 6T172 -16Q139 -16 117 5T95 60ZM189 902Q189 935 211 958T266 981Q299 981 322 958T345 902Q345 869 322 848T266 826Q233 826
211 847T189 902Z" />
<glyph unicode=";" glyph-name="semicolon" horiz-adv-x="490" d="M109 67Q109 97 128 118T180 139Q215 139 235 115T256 48Q256 -34 219 -112T122 -250L113 -241Q110 -239 110 -235T109 -229Q109 -223 124 -204T159 -154T196 -83T217 4Q201 -7 177 -7Q147 -7
128 13T109 67ZM199 902Q199 935 221 958T276 981Q309 981 332 958T355 902Q355 869 332 848T276 826Q243 826 221 847T199 902Z" />
<glyph unicode="&lt;" glyph-name="less" horiz-adv-x="1187" d="M193 675L195 693L196 698L998 1085L995 1052Q993 1044 988 1038T969 1024L308 710Q293 702 277 696T244 686Q278 678 302 664L886 348Q906 337 905 322L901 288L193 675Z" />
<glyph unicode="=" glyph-name="equal" horiz-adv-x="1187" d="M163 518L168 559H997L993 518H163ZM201 826L206 867H1035L1031 826H201Z" />
<glyph unicode="&gt;" glyph-name="greater" horiz-adv-x="1187" d="M204 288L208 322Q210 330 215 336T233 348L894 664Q909 671 925 676T958 686Q927 693 900 710L316 1024Q305 1031 301 1037T298 1052L301 1085L1011 698L1008 680H1007V675L204 288Z" />
<glyph unicode="?" glyph-name="question" horiz-adv-x="812" d="M177 1315Q205 1342 238 1367T310 1412T395 1444T492 1456Q549 1456 599 1438T687 1385T746 1302T768 1193Q768 1108 743 1047T678 941T591 862T503 798T430 736T392 665L361 492H326L346 669Q350
712 380 745T451 810T539 874T626 950T692 1050T718 1186Q718 1239 700 1281T649 1352T574 1396T484 1412Q417 1412 368 1393T284 1350T229 1308T200 1288Q194 1288 187 1295L177 1315ZM243 60Q243 93 265 116T319 139Q352 139 375 116T398 60Q398 27 375 6T319
-16Q286 -16 265 5T243 60Z" />
<glyph unicode="@" glyph-name="at" horiz-adv-x="1560" d="M112 436Q112 569 142 688T227 908T356 1090T519 1228T708 1316T911 1347Q1024 1347 1125 1311T1303 1204T1423 1027T1468 781Q1468 649 1434 541T1343 355T1214 236T1063 194Q1018 194 988 208T941
249T921 314T926 400Q863 295 788 248T632 200Q588 200 556 215T502 259T471 323T461 403Q461 463 478 526T526 649T603 759T705 849T830 910T974 933Q1017 933 1058 926T1129 900L1001 552Q964 449 958 387T965 289T1009 243T1073 231Q1138 231 1201 269T1315
378T1395 551T1426 781Q1426 913 1386 1012T1274 1177T1109 1276T907 1309Q812 1309 720 1281T543 1199T388 1069T265 896T184 684T155 440Q155 284 200 165T326 -36T516 -160T751 -202Q1027 -202 1244 -57Q1255 -50 1262 -53T1271 -65L1275 -85Q1159 -162 1028
-202T746 -243Q609 -243 493 -198T292 -66T160 148T112 436ZM507 411Q507 375 515 343T540 288T584 251T647 238Q684 238 724 251T805 300T885 397T958 552L1076 879Q1051 887 1026 891T965 896Q898 896 839 876T728 819T636 736T567 635T523 524T507 411Z" />
<glyph unicode="A" glyph-name="A" horiz-adv-x="1222" d="M-39 0L686 1440H739L1111 0H1069Q1053 0 1048 16L932 474H256L29 16Q24 9 17 5T2 0H-39ZM278 516H922L719 1320Q715 1334 712 1348T706 1379Q699 1363 692 1349T678 1320L278 516Z" />
<glyph unicode="B" glyph-name="B" horiz-adv-x="1188" d="M140 0L317 1440H678Q876 1440 971 1359T1066 1133Q1066 1060 1041 994T972 875T866 785T730 735Q878 717 958 637T1039 427Q1039 327 1006 248T909 114T756 29T552 0H140ZM201 45H556Q657 45 736 70T871
143T955 262T984 425Q984 490 961 542T893 632T785 689T640 709H283L201 45ZM288 750H600Q708 750 785 783T913 870T988 990T1012 1122Q1012 1252 929 1324T674 1396H368L288 750Z" />
<glyph unicode="C" glyph-name="C" horiz-adv-x="1293" d="M132 607Q132 796 188 952T344 1221T578 1394T870 1456Q943 1456 1000 1446T1106 1413T1195 1359T1277 1283L1262 1264Q1255 1257 1243 1256Q1236 1256 1225 1267T1196 1296T1149 1333T1081 1369T989
1397T866 1409Q723 1409 600 1353T385 1194T241 942T188 610Q188 476 224 369T324 187T479 72T677 31Q756 31 819 44T931 77T1016 121T1077 165T1117 199T1138 213Q1142 213 1146 209L1165 186Q1118 141 1066 104T953 40T822 -1T670 -16Q548 -16 449 28T279 154T171
351T132 607Z" />
<glyph unicode="D" glyph-name="D" horiz-adv-x="1445" d="M140 0L317 1440H795Q920 1440 1020 1398T1191 1277T1299 1086T1337 833Q1337 639 1283 485T1133 223T904 58T617 0H140ZM201 45H623Q764 45 884 98T1092 252T1229 499T1279 831Q1279 963 1245 1067T1146
1245T992 1356T790 1395H368L201 45Z" />
<glyph unicode="E" glyph-name="E" horiz-adv-x="1105" d="M140 0L317 1440H1101L1094 1393H367L288 754H901L895 708H283L201 47H931L925 0H140Z" />
<glyph unicode="F" glyph-name="F" horiz-adv-x="1082" d="M140 0L317 1440H1101L1094 1393H367L286 732H920L912 685H280L196 0H140Z" />
<glyph unicode="G" glyph-name="G" horiz-adv-x="1403" d="M133 607Q133 800 188 956T343 1224T581 1395T888 1456Q964 1456 1025 1446T1139 1414T1234 1361T1317 1287L1300 1268Q1292 1256 1277 1260Q1271 1262 1259 1273T1227 1301T1178 1337T1107 1372T1010
1398T884 1409Q730 1409 602 1353T383 1194T240 942T189 608Q189 475 225 368T327 185T486 70T696 29Q772 29 835 38T953 64T1058 107T1160 164L1213 589H936Q928 589 924 594T921 604L923 632H1269L1208 141Q1154 104 1098 75T978 26T844 -5T689 -16Q560 -16 457
28T282 154T172 351T133 607Z" />
<glyph unicode="H" glyph-name="H" horiz-adv-x="1427" d="M140 0L317 1440H373L288 753H1174L1258 1440H1314L1137 0H1081L1168 709H283L196 0H140Z" />
<glyph unicode="I" glyph-name="I" horiz-adv-x="486" d="M140 0L317 1440H373L196 0H140Z" />
<glyph unicode="J" glyph-name="J" horiz-adv-x="789" d="M-39 14L-35 40Q-33 45 -30 50T-15 55Q-6 55 6 51T36 43T82 34T148 30Q213 30 272 50T380 116T462 240T510 433L634 1440H690L565 434Q551 315 515 230T424 89T300 8Q232 -16 152 -16Q149 -16 146 -16Q91
-16 47 -9T-39 14Z" />
<glyph unicode="K" glyph-name="K" horiz-adv-x="1177" d="M140 0L317 1442H373L288 756H374Q391 756 404 757T428 763T449 774T471 793L1127 1418Q1141 1432 1151 1436T1176 1440H1218L522 778Q504 761 491 752T461 738Q491 728 513 697L1077 0H1038Q1019 0 1012
4T997 19L465 670Q456 681 449 689T432 702T408 710T372 713H283L196 0H140Z" />
<glyph unicode="L" glyph-name="L" horiz-adv-x="946" d="M140 0L317 1440H373L202 48H857L851 0H140Z" />
<glyph unicode="M" glyph-name="M" horiz-adv-x="1705" d="M140 0L317 1440H350Q364 1440 374 1427L818 356Q820 349 822 343T826 329Q829 336 833 343T842 356L1534 1427Q1540 1434 1545 1437T1560 1440H1592L1415 0H1367L1529 1318Q1530 1325 1531 1332T1534
1348L851 290Q840 274 825 273H815Q799 273 794 290L351 1352Q351 1343 351 1335T349 1318L188 0H140Z" />
<glyph unicode="N" glyph-name="N" horiz-adv-x="1427" d="M140 0L317 1440H342Q350 1440 354 1438T364 1427L1103 93Q1103 101 1103 110T1105 127L1266 1440H1314L1137 0H1116Q1102 0 1092 15L352 1352L349 1318L188 0H140Z" />
<glyph unicode="O" glyph-name="O" horiz-adv-x="1499" d="M133 605Q133 799 188 955T340 1223T568 1395T853 1456Q977 1456 1077 1412T1247 1286T1356 1090T1394 835Q1394 641 1339 485T1188 217T959 46T672 -14Q549 -14 449 30T279 155T171 350T133 605ZM189
608Q189 475 224 369T323 188T476 73T677 32Q818 32 939 87T1148 246T1285 499T1335 834Q1335 967 1301 1073T1203 1254T1049 1369T847 1410Q709 1410 589 1354T380 1195T240 943T189 608Z" />
<glyph unicode="P" glyph-name="P" horiz-adv-x="1079" d="M140 0L317 1440H636Q841 1440 944 1350T1048 1087Q1048 979 1010 891T904 738T741 639T532 603H269L196 0H140ZM275 647H538Q639 647 722 680T866 771T958 908T991 1081Q991 1232 901 1314T631 1396H367L275
647Z" />
<glyph unicode="Q" glyph-name="Q" horiz-adv-x="1499" d="M133 605Q133 799 188 955T340 1223T568 1395T853 1456Q977 1456 1077 1412T1247 1286T1356 1090T1394 835Q1394 699 1366 581T1288 365T1166 193T1006 70L1305 -329H1265Q1241 -329 1228 -313L961 46Q828
-14 672 -14Q549 -14 449 30T279 155T171 350T133 605ZM189 608Q189 475 224 369T323 188T476 73T677 32Q818 32 939 87T1148 246T1285 499T1335 834Q1335 967 1301 1073T1203 1254T1049 1369T847 1410Q709 1410 589 1354T380 1195T240 943T189 608Z" />
<glyph unicode="R" glyph-name="R" horiz-adv-x="1134" d="M140 0L317 1440H639Q836 1440 937 1362T1038 1126Q1038 1029 1005 950T912 814T767 723T583 682Q599 672 611 651L1022 0H978Q967 0 959 3T944 17L558 640Q544 662 527 670T472 678H280L196 0H140ZM285
721H535Q636 721 719 748T861 828T951 953T983 1119Q983 1259 894 1327T634 1396H339L366 1373L285 721Z" />
<glyph unicode="S" glyph-name="S" horiz-adv-x="1010" d="M44 171L61 191Q66 195 70 198T81 201Q88 201 98 188T124 156T164 115T222 74T301 43T408 30Q502 30 578 62T708 151T790 284T819 446Q819 514 794 559T726 636T629 690T519 733T408 778T312 837T244
923T218 1051Q218 1131 246 1204T327 1333T459 1423T635 1456Q734 1456 808 1420T937 1311L924 1291Q918 1281 906 1281Q896 1281 880 1301T833 1345T754 1390T629 1410Q545 1410 479 1382T366 1306T295 1195T270 1060Q270 992 296 947T364 869T460 815T571 771T681
724T777 664T845 579T871 456Q871 361 839 275T745 124T597 22T401 -16Q334 -16 282 -4T186 33T109 92T44 171Z" />
<glyph unicode="T" glyph-name="T" horiz-adv-x="1076" d="M119 1392L124 1440H1150L1145 1392H662L490 0H435L606 1392H119Z" />
<glyph unicode="U" glyph-name="U" horiz-adv-x="1377" d="M190 540L301 1440H356L246 542Q241 499 241 458Q242 398 252 342Q270 248 317 180T440 71T618 31Q719 31 804 70T954 179T1060 340T1115 540L1225 1440H1281L1170 540Q1155 424 1109 322T989 145T821
26T611 -18Q498 -18 413 25T274 144Q220 220 198 322Q185 384 184 451Q184 494 190 540Z" />
<glyph unicode="V" glyph-name="V" horiz-adv-x="1215" d="M135 1440H178Q195 1440 198 1423L528 130Q532 115 536 99T542 66Q548 83 555 99T570 130L1217 1423Q1224 1439 1242 1440H1283L558 0H509L135 1440Z" />
<glyph unicode="W" glyph-name="W" horiz-adv-x="1903" d="M154 1440H197Q214 1440 216 1423L425 132L432 71Q437 87 443 102T455 132L1022 1423Q1029 1439 1047 1440H1058Q1074 1440 1077 1423L1327 132Q1329 118 1330 103T1334 72L1356 132L1882 1423Q1884 1430
1892 1435T1908 1440H1950L1354 0H1306L1049 1331Q1047 1339 1046 1350T1043 1373Q1039 1362 1036 1351T1028 1331L444 0H395L154 1440Z" />
<glyph unicode="X" glyph-name="X" horiz-adv-x="1166" d="M-40 0L566 769L200 1440H249Q259 1440 263 1436T273 1421L606 797Q611 808 618 817L1097 1426Q1106 1439 1122 1440H1174L643 771L1059 0H1009Q998 0 994 6T986 18L603 739Q601 734 598 731T592 722L42
18Q29 0 14 0H-40Z" />
<glyph unicode="Y" glyph-name="Y" horiz-adv-x="1097" d="M130 1440H178Q194 1440 200 1424L539 690Q543 679 547 668T554 645Q559 657 565 668T580 690L1100 1424Q1108 1439 1124 1440H1170L577 604L501 0H445L521 605L130 1440Z" />
<glyph unicode="Z" glyph-name="Z" horiz-adv-x="1117" d="M-6 0L-3 19Q-1 25 1 29T8 40L1061 1393H184L191 1440H1143L1139 1420Q1137 1410 1126 1398L76 47H967L959 0H-6Z" />
<glyph unicode="[" glyph-name="bracketleft" horiz-adv-x="562" d="M104 -256L326 1544H601L599 1526Q596 1508 578 1507H367L153 -220H366Q385 -220 383 -239L380 -256H104Z" />
<glyph unicode="\" glyph-name="backslash" horiz-adv-x="804" d="M184 1477H206Q232 1477 237 1455L642 -82H623Q612 -82 602 -78T589 -59L184 1477Z" />
<glyph unicode="]" glyph-name="bracketright" horiz-adv-x="565" d="M-30 -256L-28 -239Q-25 -221 -5 -220H206L418 1507H208Q186 1507 189 1526L191 1544H468L248 -256H-30Z" />
<glyph unicode="^" glyph-name="asciicircum" horiz-adv-x="1187" d="M295 826L635 1440H667L1007 826H970Q962 826 955 831T944 845L673 1334Q666 1347 660 1359T650 1384Q646 1371 641 1360T629 1334L358 845Q354 839 348 833T332 826H295Z" />
<glyph unicode="_" glyph-name="underscore" horiz-adv-x="907" d="M-26 -272L-22 -232H722L716 -272H-26Z" />
<glyph unicode="`" glyph-name="grave" horiz-adv-x="753" d="M377 1456H426Q444 1456 453 1451T470 1430L594 1187H565Q559 1187 554 1189T545 1199L377 1456Z" />
<glyph unicode="a" glyph-name="a" horiz-adv-x="1007" d="M79 337Q79 424 101 508T164 669T261 809T384 921T527 995T684 1022Q742 1022 791 1011T887 974L768 0H745Q733 0 729 7T725 24L768 406Q729 314 681 237T576 105T458 19T330 -12Q264 -12 217 13T140
85T94 195T79 337ZM132 343Q132 270 144 213T182 116T247 54T342 32Q405 32 466 65T583 161T688 312T777 509L831 950Q796 966 759 973T680 981Q608 981 540 957T410 889T299 785T211 655T153 505T132 343Z" />
<glyph unicode="b" glyph-name="b" horiz-adv-x="1042" d="M95 0L274 1481H326L219 611Q260 703 310 779T419 909T541 994T670 1024Q737 1024 786 999T868 927T917 816T934 674Q934 598 919 518T874 362T801 218T703 99T583 18T441 -12Q354 -12 279 29T161 157L138
22Q136 12 133 6T119 0H95ZM170 202Q194 155 223 122T288 69T360 39T438 30Q508 30 568 58T677 134T765 247T829 382T868 528T882 671Q882 743 868 800T825 897T754 959T657 981Q594 981 531 947T409 852T299 701T206 503L170 202Z" />
<glyph unicode="c" glyph-name="c" horiz-adv-x="933" d="M87 385Q87 465 103 544T150 694T225 826T324 931T443 1001T581 1026Q630 1026 670 1017T743 989T802 947T851 891L837 874Q831 868 821 868Q813 868 799 886T757 925T687 964T579 982Q485 982 405 932T266
799T174 607T140 384Q140 309 157 245T209 133T299 58T429 31Q488 31 535 43T618 75T682 117T730 159T763 192T786 205Q795 205 802 199L812 186Q757 125 708 86T613 26T520 -4T423 -12Q336 -12 273 18T169 101T107 227T87 385Z" />
<glyph unicode="d" glyph-name="d" horiz-adv-x="1043" d="M83 339Q83 415 98 494T143 650T216 794T314 913T434 994T575 1024Q661 1024 735 984T853 862L930 1481H981L800 0H777Q764 0 760 7T756 24L799 404Q759 312 708 236T598 104T477 18T347 -12Q280 -12
231 14T149 86T100 197T83 339ZM135 343Q135 270 149 213T192 115T262 53T359 31Q421 31 484 64T606 159T716 309T808 506L847 812Q823 859 793 891T729 944T656 972T579 981Q509 981 449 953T339 877T252 765T188 631T149 486T135 343Z" />
<glyph unicode="e" glyph-name="e" horiz-adv-x="949" d="M87 377Q87 453 102 530T146 679T217 814T316 923T440 997T589 1024Q662 1024 711 1004T789 955T831 891T844 830Q844 789 833 753T794 683T716 620T588 566T401 520T145 483Q141 456 140 430T138 378Q138
297 156 233T212 124T304 55T434 31Q490 31 536 43T619 75T684 118T733 160T768 193T793 206Q801 206 807 200L817 187Q768 135 722 97T629 35T532 -1T426 -12Q343 -12 280 15T173 92T109 214T87 377ZM152 521Q294 537 397 557T573 601T689 651T757 706T790 766T799
828Q799 852 788 879T752 929T687 967T587 983Q496 983 423 944T296 841T205 693T152 521Z" />
<glyph unicode="f" glyph-name="f" horiz-adv-x="617" d="M97 952L99 971H259L278 1115Q288 1201 316 1265T385 1371T477 1434T589 1455Q616 1455 644 1450T693 1434L687 1409Q685 1402 679 1402T660 1404T630 1410T589 1414Q541 1414 498 1398T421 1346T362 1253T328
1114L309 971H612L605 932H306L195 14L154 -233Q149 -257 126 -257H110L255 931L113 937Q98 938 97 952Z" />
<glyph unicode="g" glyph-name="g" horiz-adv-x="922" d="M-43 -146Q-42 -66 5 -4T137 98T335 152Q385 158 438 158Q507 158 581 148Q557 175 540 204Q525 230 525 267Q525 289 528 308Q531 327 539 347T562 392T599 445Q556 414 508 398T407 381Q349 381 300
399T216 452T162 538T142 655Q142 725 165 791T235 909T346 992T496 1024Q597 1024 667 975H926L925 956Q924 951 919 946T902 939L711 933Q738 900 752 856T766 757Q765 697 750 649T713 559T666 484T618 417T582 351T567 282Q566 253 579 228T613 179T656 130T700
75T732 12T745 -66Q744 -127 713 -184T623 -285T485 -356T307 -383Q230 -383 166 -368T55 -322T-17 -248T-43 -146ZM7 -142Q7 -190 29 -227T92 -290T188 -328T311 -342Q398 -342 469 -319T590 -257T667 -169T696 -69Q696 -38 690 -13T672 33T646 73T616 110Q524
123 446 123Q395 123 350 118Q237 103 161 67T46 -25T7 -142ZM191 655Q191 537 252 478T416 419Q488 419 544 448T639 524T698 632T719 755Q719 813 703 856T657 927T585 969T492 984Q420 984 364 957T270 883T211 778T191 655Z" />
<glyph unicode="h" glyph-name="h" horiz-adv-x="1041" d="M95 0L274 1481H327L226 655Q267 741 319 809T429 925T548 998T672 1024Q738 1024 783 999T854 925Q881 876 888 806Q891 777 891 745Q891 699 885 646L809 0H757L833 646Q839 696 839 740Q839 832 811
892Q770 980 657 980Q598 980 537 951T419 866T309 733T215 558L147 0H95Z" />
<glyph unicode="i" glyph-name="i" horiz-adv-x="414" d="M106 0L229 1010H282L158 0H106ZM226 1374Q226 1403 246 1424T293 1445Q319 1445 339 1424T359 1374Q359 1346 338 1326T292 1305Q265 1305 246 1326T226 1374Z" />
<glyph unicode="j" glyph-name="j" horiz-adv-x="413" d="M-172 -359L-166 -334Q-162 -326 -157 -326T-143 -328T-123 -335T-92 -339Q-15 -339 30 -290T86 -158L229 1010H282L137 -158Q131 -206 113 -247T65 -317T-3 -364T-90 -381Q-117 -381 -136 -376T-172 -359ZM230
1374Q230 1403 250 1424T297 1445Q323 1445 343 1424T364 1374Q364 1346 343 1326T297 1305Q270 1305 250 1326T230 1374Z" />
<glyph unicode="k" glyph-name="k" horiz-adv-x="872" d="M94 0L275 1481H327L214 562H256Q272 562 282 565T307 583L770 989Q779 999 789 1004T813 1010H856L356 572Q338 555 325 549Q338 543 346 534T362 515L768 0H725Q715 0 707 3T692 16L316 495Q302 512
288 518T247 524H209L145 0H94Z" />
<glyph unicode="l" glyph-name="l" horiz-adv-x="410" d="M106 0L286 1481H337L157 0H106Z" />
<glyph unicode="m" glyph-name="m" horiz-adv-x="1590" d="M95 0L217 1014H238Q249 1014 254 1007T259 990L221 643Q261 732 309 802T413 922T528 998T650 1024Q712 1024 751 1001T809 932T831 820Q832 805 832 789Q832 735 824 671Q863 760 913 826T1019 937T1133
1002T1247 1024Q1313 1024 1354 999T1417 925Q1438 876 1441 806Q1442 791 1442 775Q1442 716 1433 646L1357 0H1306L1381 646Q1390 722 1390 781Q1390 784 1390 788Q1390 850 1374 892T1323 957T1233 980Q1180 980 1124 957T1013 885T910 763T820 589L751 0H699L775
646Q784 726 785 788Q785 792 785 796Q785 852 772 892Q758 934 726 957T637 980Q510 980 404 869T212 550L146 0H95Z" />
<glyph unicode="n" glyph-name="n" horiz-adv-x="1042" d="M95 0L217 1014H238Q249 1014 253 1007T258 990L221 638Q262 727 314 798T425 920T547 997T674 1024Q740 1024 785 999T856 925Q883 876 890 806Q893 777 893 745Q893 699 887 646L810 0H759L835 646Q841
696 841 740Q841 832 813 892Q772 980 659 980Q598 980 536 950T416 864T305 727T212 547L147 0H95Z" />
<glyph unicode="o" glyph-name="o" horiz-adv-x="1045" d="M90 399Q90 479 106 557T151 704T224 832T321 933T440 1000T579 1024Q660 1024 725 996T835 914T905 785T930 614Q930 534 914 457T869 311T796 182T699 79T579 12T441 -12Q360 -12 295 16T185 98T115
228T90 399ZM143 399Q143 313 164 245T224 129T319 56T446 31Q542 31 621 80T757 212T845 399T877 614Q877 700 856 768T796 884T700 956T573 981Q508 981 452 959T348 897T262 803T198 683T157 546T143 399Z" />
<glyph unicode="p" glyph-name="p" horiz-adv-x="1043" d="M50 -366L218 1014H238Q250 1014 254 1007T259 990L218 606Q258 698 309 775T418 907T541 993T671 1024Q738 1024 787 999T869 927T918 816T935 674Q935 598 920 518T875 362T802 218T704 99T584 18T442
-12Q399 -12 359 -2T282 28T216 80T164 152L101 -366H50ZM170 203Q194 155 224 122T289 69T361 39T439 30Q509 30 569 58T678 134T766 247T830 382T869 528T883 671Q883 743 869 800T826 897T755 959T658 981Q595 981 532 947T410 852T300 701T207 503L170 203Z"
/>
<glyph unicode="q" glyph-name="q" horiz-adv-x="1009" d="M79 337Q79 424 101 508T164 669T261 809T384 921T527 995T684 1022Q742 1022 791 1011T887 974L724 -366H699Q682 -366 676 -356T673 -323L762 390Q723 301 675 227T572 100T455 17T330 -12Q264 -12
217 13T140 85T94 195T79 337ZM132 343Q132 270 144 213T182 116T247 54T342 32Q404 32 465 65T581 159T686 308T776 504L831 950Q796 966 759 973T680 981Q608 981 540 957T410 889T299 785T211 655T153 505T132 343Z" />
<glyph unicode="r" glyph-name="r" horiz-adv-x="658" d="M95 0L217 1014H238Q249 1014 254 1007T259 990L221 646Q263 755 314 833T423 959T543 1018Q563 1022 584 1022Q627 1022 673 1005L664 957Q619 974 577 974Q552 974 528 968Q464 952 407 899T301 756T212
546L146 0H95Z" />
<glyph unicode="s" glyph-name="s" horiz-adv-x="798" d="M31 105L44 123Q51 133 61 133Q68 133 83 116T126 78T198 40T309 23Q376 23 430 45T524 106T584 197T606 306Q606 355 586 388T534 444T459 483T373 515T287 547T212 589T159 650T139 738Q139 794 164
846T235 937T340 1000T470 1024Q552 1024 611 1000T719 923L707 905Q701 896 691 896Q683 896 669 910T630 939T564 969T465 983Q409 983 359 964T270 912T209 837T186 745Q186 700 206 670T259 617T334 579T420 547T506 514T580 470T633 406T653 314Q653 252 628
193T557 87T446 12T301 -16Q252 -16 213 -8T141 17T82 55T31 105Z" />
<glyph unicode="t" glyph-name="t" horiz-adv-x="684" d="M93 945L96 964L259 971L321 1360Q323 1366 327 1371T339 1377H361L311 971H617L612 930H306L232 319Q226 277 223 250T219 205T217 178T216 165Q216 92 250 60T338 28Q375 28 404 40T454 66T490 93T510
105Q516 105 520 99L529 80Q492 37 437 11T326 -16Q249 -16 207 26T164 158Q164 164 164 173T166 200T171 246T180 319L254 930H109Q94 930 93 945Z" />
<glyph unicode="u" glyph-name="u" horiz-adv-x="1042" d="M130 367L206 1010H258L181 367Q175 316 175 272Q175 248 177 225Q182 163 203 120T262 55T356 32Q416 32 478 62T599 148T709 285T803 464L868 1010H921L799 0H777Q765 0 760 7T755 24L796 374Q755 285
703 213T591 91T469 15T343 -12Q212 -12 160 87Q123 157 123 267Q123 313 130 367Z" />
<glyph unicode="v" glyph-name="v" horiz-adv-x="932" d="M95 1010H132Q142 1010 147 1004T155 991L390 118Q393 103 395 88T398 55Q409 88 424 118L873 991Q877 999 884 1004T900 1010H937L414 0H372L95 1010Z" />
<glyph unicode="w" glyph-name="w" horiz-adv-x="1424" d="M106 1010H140Q157 1010 163 991L321 118Q323 103 324 89T326 59Q331 73 337 87T350 118L734 1000Q739 1014 754 1015H771Q784 1015 786 1000L954 118Q956 103 958 88T962 57Q967 71 973 85T985 118L1357
991Q1360 999 1366 1004T1381 1010H1415L978 0H944Q932 0 930 14L758 906Q756 915 755 924T753 943Q751 934 747 925T739 906L346 14Q341 0 330 0H297L106 1010Z" />
<glyph unicode="x" glyph-name="x" horiz-adv-x="863" d="M-34 0L393 539L131 1010H171Q181 1010 185 1008T195 998L430 566Q432 571 435 575T442 585L767 997Q775 1009 787 1010H833L457 537L749 0H709Q690 0 682 15L418 508Q413 496 407 488L34 13Q29 7 23 4T9 0H-34Z" />
<glyph unicode="y" glyph-name="y" horiz-adv-x="934" d="M98 1010H136Q154 1010 158 991L397 127Q399 115 401 103T404 79Q409 91 415 103T427 127L880 994Q888 1009 903 1010H941L229 -344Q218 -366 200 -366H165L374 25L98 1010Z" />
<glyph unicode="z" glyph-name="z" horiz-adv-x="835" d="M-6 0L-4 19Q-4 25 -1 31T8 43L742 967H143L150 1010H813L810 987Q810 981 807 976T798 965L65 43H668L664 0H-6Z" />
<glyph unicode="{" glyph-name="braceleft" horiz-adv-x="560" d="M93 626L97 662Q135 662 168 676T225 720T264 794T278 898Q278 932 275 969T269 1045T264 1120T261 1193Q261 1273 282 1338T340 1449T429 1519T543 1544H595L594 1523Q589 1508 573 1507H537Q491
1507 450 1488T377 1430T327 1336T308 1206Q307 1167 309 1126T315 1043T321 961T323 884Q323 827 307 784T268 711T215 666T158 644Q181 639 201 626T238 593T264 547T274 487Q274 424 256 363T216 239T176 112T157 -20Q157 -65 169 -101T203 -164T256 -205T325
-220H364Q369 -220 374 -223T378 -236L375 -256H322Q272 -256 233 -238T166 -187T124 -112T110 -18Q110 53 128 116T170 239T211 360T230 486Q230 547 193 586T93 626Z" />
<glyph unicode="|" glyph-name="bar" horiz-adv-x="487" d="M220 -366V1544H263V-366H220Z" />
<glyph unicode="}" glyph-name="braceright" horiz-adv-x="562" d="M-27 -256L-23 -236Q-23 -228 -18 -224T-4 -220H32Q78 -220 119 -201T192 -143T241 -49T261 81Q261 120 259 161T255 244T250 326T248 403Q249 460 264 503T303 576T355 621T412 644Q389 649
368 661T331 693T304 739T294 800Q294 863 312 924T353 1048T394 1175T413 1308Q413 1353 401 1389T366 1452T314 1493T245 1507H208Q201 1507 196 1510T194 1523L195 1544H248Q298 1544 337 1526T403 1475T444 1400T459 1307Q459 1236 441 1173T400 1048T359 927T340
801Q340 740 377 701T477 662L472 626Q435 626 403 612T346 568T307 493T292 389Q292 355 294 318T300 243T305 167T308 95Q308 15 287 -50T229 -161T140 -231T27 -256H-27Z" />
<glyph unicode="~" glyph-name="asciitilde" horiz-adv-x="1187" d="M157 456Q157 505 171 548T214 625T284 677T378 696Q413 696 449 686T524 661T599 627T673 593T743 568T809 557Q850 557 883 572T939 613T975 675T989 753H1033Q1033 704 1019 660T975 584T905
532T811 512Q759 512 703 534T591 582T481 630T380 652Q339 652 306 638T250 596T215 534T201 456H157Z" />
</font>
</defs>
</svg>
